<svg xmlns="http://www.w3.org/2000/svg" width="1200" height="700" viewBox="0 0 1200 700">
  <defs>
    <style>
      .a, .f {
        fill: #eeefed;
      }

      .b {
        fill: none;
      }

      .b, .f {
        stroke: #000;
        stroke-miterlimit: 10;
        stroke-width: 3px;
      }

      .c {
        fill: #e72b78;
      }

      .d {
        fill: #fff;
      }

      .e {
        fill: #f9b443;
      }
    </style>
  </defs>
  <rect class="a" x="18.165" y="15.6597" width="1163.67" height="668.6807" rx="41.4371" transform="translate(1200 700) rotate(-180)"/>
  <line class="b" x1="469.9924" y1="339.2287" x2="299.0293" y2="339.2287"/>
  <polygon points="456.536 339.229 456.536 349.947 465.818 344.588 475.1 339.229 465.818 333.87 456.536 328.511 456.536 339.229"/>
  <line class="b" x1="849.9927" y1="339.2287" x2="679.0297" y2="339.2287"/>
  <polygon points="836.536 339.229 836.536 349.947 845.818 344.588 855.1 339.229 845.818 333.87 836.536 328.511 836.536 339.229"/>
  <rect class="c" x="483.3649" y="258.6849" width="271.9927" height="139.6516"/>
  <g>
    <path class="d" d="M531.5037,315.4538l.44,3.8262a25.49,25.49,0,0,1-7.4834.9482q-5.4185,0-7.6191-2.709t-2.2012-9.38q0-6.6708,2.2012-9.38t7.6191-2.709a28.7328,28.7328,0,0,1,7.01.7783l-.44,3.86q-2.7436-.1685-6.5694-.1689a3.6637,3.6637,0,0,0-3.4716,1.6084q-.9316,1.6084-.9307,6.0107t.9307,6.0108a3.6639,3.6639,0,0,0,3.4716,1.6084A59.4311,59.4311,0,0,0,531.5037,315.4538Z"/>
    <path class="d" d="M542.8484,302.653q4.673,0,6.62,2.0156t1.9473,6.8233q0,4.809-1.9473,6.789-1.9482,1.9819-6.62,1.9815-4.7079,0-6.6543-1.9815-1.9482-1.98-1.9472-6.789,0-4.8428,1.9472-6.8408T542.8484,302.653Zm0,3.7588a3.0029,3.0029,0,0,0-2.6758,1.0166q-.6766,1.0152-.6767,4.0635a7.976,7.976,0,0,0,.6767,3.9961,3.0052,3.0052,0,0,0,2.6758,1.0156,2.9683,2.9683,0,0,0,2.6241-1.0156,7.8016,7.8016,0,0,0,.6943-3.9961,8.1647,8.1647,0,0,0-.6777-4.0469A2.9378,2.9378,0,0,0,542.8484,306.4118Z"/>
    <path class="d" d="M558.8309,303.1276l.3388,2.4385a9.52,9.52,0,0,1,6.3662-2.9131q3.3854,0,4.3008,2.709a8.9777,8.9777,0,0,1,6.0947-2.709,4.1571,4.1571,0,0,1,4.64,4.64V319.822h-4.9785V308.85a2.3908,2.3908,0,0,0-.3721-1.5235,1.7643,1.7643,0,0,0-1.3887-.44,4.0732,4.0732,0,0,0-1.5576.3047,16.4249,16.4249,0,0,0-2.167,1.1855V319.822h-4.8086V308.85a2.1814,2.1814,0,0,0-.4228-1.5235,1.8419,1.8419,0,0,0-1.3721-.44,7.9534,7.9534,0,0,0-3.69,1.4561v11.48h-4.9785V303.1276Z"/>
    <path class="d" d="M588.63,303.1276l.373,2.4385a7.7816,7.7816,0,0,1,2.8955-2.0664,9.2111,9.2111,0,0,1,3.7412-.8125q5.7568,0,5.7569,8.9394,0,4.8091-1.541,6.7227a5.8286,5.8286,0,0,1-4.8252,1.9131,9.151,9.151,0,0,1-5.5869-1.626,26.9413,26.9413,0,0,1,.1015,3.59v4.0292h-4.9785V303.1276Zm.915,5.0791V315.86a17.5543,17.5543,0,0,0,3.792.6768,2.5377,2.5377,0,0,0,2.2861-.9473,8.1883,8.1883,0,0,0,.626-3.9629,9.2124,9.2124,0,0,0-.5752-3.9785,2.1271,2.1271,0,0,0-2.0322-1.0332A8.0224,8.0224,0,0,0,589.5447,308.2067Z"/>
    <path class="d" d="M616.8709,302.653l-.5078,4.64h-1.3545a18.248,18.248,0,0,0-5.1133,1.1513v11.378h-5.0117V303.1276h3.8945l.44,2.4385a10.5252,10.5252,0,0,1,6.7725-2.9131Z"/>
    <path class="d" d="M629.6717,313.1511h-6.0274a3.4634,3.4634,0,0,0,1.1006,2.455,4.9922,4.9922,0,0,0,2.8613.626,60.5,60.5,0,0,0,6.2305-.3721l.4746,3.1153a17.1469,17.1469,0,0,1-7.28,1.2529q-4.7079,0-6.705-2.0312t-1.9981-6.7051q0-4.91,1.9473-6.874t6.5527-1.9649q4.1646,0,6.0274,1.4395a5.281,5.281,0,0,1,1.8964,4.3857,4.6819,4.6819,0,0,1-1.2021,3.5049A5.4233,5.4233,0,0,1,629.6717,313.1511Zm-6.1289-3.0137h4.7412a1.4468,1.4468,0,0,0,1.2353-.44,2.1613,2.1613,0,0,0,.3223-1.2872,1.9321,1.9321,0,0,0-.6094-1.6416,3.92,3.92,0,0,0-2.2353-.458,3.5629,3.5629,0,0,0-2.6416.7627A5.0147,5.0147,0,0,0,623.5428,310.1374Z"/>
    <path class="d" d="M645.4178,313.6247l-4.1651-1.1172a5.9778,5.9778,0,0,1-3.1826-1.8457,5.2584,5.2584,0,0,1-.8809-3.2334,4.1224,4.1224,0,0,1,1.6084-3.6914q1.6085-1.0841,5.503-1.084a48.8181,48.8181,0,0,1,7.7207.6436l-.3389,3.2168q-4.2671-.0675-6.4336-.0674-1.1865,0-1.6426.0166a5.0572,5.0572,0,0,0-.914.1191q-.457.1011-.5586.3213a1.6378,1.6378,0,0,0-.1016.66,2.3918,2.3918,0,0,0,.0166.3047.6569.6569,0,0,0,.085.2548,1.7217,1.7217,0,0,0,.1181.1856.673.673,0,0,0,.1866.1523,1.4392,1.4392,0,0,0,.22.1192c.0566.0224.1582.0625.3047.1181s.26.0967.3389.1182c.0791.0234.2255.0625.44.1191s.3779.0957.4912.1182l4.2666,1.1514a6.6728,6.6728,0,0,1,3.1826,1.71,4.6361,4.6361,0,0,1,.9483,3.166q0,2.981-1.7266,4.0469t-5.9268,1.0664a45.197,45.197,0,0,1-7.4834-.5752l.3047-3.2509q1.2188.0688,5.791.0673a16.0939,16.0939,0,0,0,3.4034-.22.9812.9812,0,0,0,.7949-1.0332,2.4112,2.4112,0,0,0-.0166-.3047.68.68,0,0,0-.085-.2539.8948.8948,0,0,0-.1347-.1855,1.0346,1.0346,0,0,0-.2207-.1524c-.1016-.0566-.1807-.1025-.2364-.1357a2.0751,2.0751,0,0,0-.3222-.1358c-.1582-.0556-.2823-.0957-.3721-.1181s-.249-.0625-.4746-.1192A3.9785,3.9785,0,0,1,645.4178,313.6247Z"/>
    <path class="d" d="M663.2635,313.6247l-4.1651-1.1172a5.9778,5.9778,0,0,1-3.1826-1.8457,5.2584,5.2584,0,0,1-.8808-3.2334,4.1222,4.1222,0,0,1,1.6084-3.6914q1.6083-1.0841,5.5029-1.084a48.8181,48.8181,0,0,1,7.7207.6436l-.3389,3.2168q-4.267-.0675-6.4336-.0674-1.1865,0-1.6426.0166a5.0572,5.0572,0,0,0-.914.1191q-.457.1011-.5586.3213a1.6378,1.6378,0,0,0-.1016.66,2.3918,2.3918,0,0,0,.0166.3047.6569.6569,0,0,0,.085.2548,1.7047,1.7047,0,0,0,.1182.1856.6707.6707,0,0,0,.1865.1523,1.4392,1.4392,0,0,0,.22.1192c.0566.0224.1582.0625.3047.1181s.26.0967.3389.1182c.0791.0234.2255.0625.44.1191s.3779.0957.4912.1182l4.2666,1.1514a6.6728,6.6728,0,0,1,3.1826,1.71,4.6356,4.6356,0,0,1,.9483,3.166q0,2.981-1.7266,4.0469t-5.9268,1.0664a45.197,45.197,0,0,1-7.4834-.5752l.3047-3.2509q1.2188.0688,5.791.0673a16.0939,16.0939,0,0,0,3.4034-.22.9812.9812,0,0,0,.7949-1.0332,2.4112,2.4112,0,0,0-.0166-.3047.68.68,0,0,0-.085-.2539.8948.8948,0,0,0-.1347-.1855,1.0346,1.0346,0,0,0-.2207-.1524c-.1016-.0566-.1807-.1025-.2364-.1357a2.0751,2.0751,0,0,0-.3222-.1358c-.1582-.0556-.2823-.0957-.3721-.1181s-.249-.0625-.4746-.1192A3.9785,3.9785,0,0,1,663.2635,313.6247Z"/>
    <path class="d" d="M675.1834,295.7458h2.2353a1.2873,1.2873,0,0,1,1.4561,1.456V299.03a1.2873,1.2873,0,0,1-1.4561,1.456h-2.2353a1.287,1.287,0,0,1-1.4561-1.456v-1.8282A1.287,1.287,0,0,1,675.1834,295.7458Zm3.623,24.0762h-4.9775V303.1276h4.9775Z"/>
    <path class="d" d="M690.93,302.653q4.6728,0,6.62,2.0156t1.9473,6.8233q0,4.809-1.9473,6.789-1.9482,1.9819-6.62,1.9815-4.708,0-6.6543-1.9815-1.9482-1.98-1.9473-6.789,0-4.8428,1.9473-6.8408T690.93,302.653Zm0,3.7588a3.0029,3.0029,0,0,0-2.6758,1.0166q-.6768,1.0152-.6768,4.0635a7.9746,7.9746,0,0,0,.6768,3.9961,3.0052,3.0052,0,0,0,2.6758,1.0156,2.9682,2.9682,0,0,0,2.624-1.0156,7.8006,7.8006,0,0,0,.6943-3.9961,8.1635,8.1635,0,0,0-.6777-4.0469A2.9376,2.9376,0,0,0,690.93,306.4118Z"/>
    <path class="d" d="M706.9793,303.1276l.373,2.4717a11.3936,11.3936,0,0,1,7.1446-2.9463,4.7416,4.7416,0,0,1,3.4716,1.1856,4.645,4.645,0,0,1,1.2022,3.4541V319.822h-4.9785V308.85a2.4674,2.4674,0,0,0-.3555-1.541,1.5934,1.5934,0,0,0-1.2695-.4229,11.705,11.705,0,0,0-4.64,1.5234V319.822h-5.0117V303.1276Z"/>
    <path class="d" d="M540.9685,347.488l-.4736-3.3858a48.9648,48.9648,0,0,1,8.7022-.8134,7.5169,7.5169,0,0,1,4.9785,1.372q1.5907,1.3712,1.5908,4.7578v11.0391h-3.9619l-.5078-2.54a7.7864,7.7864,0,0,1-6.1631,2.9462,5.9264,5.9264,0,0,1-3.9277-1.2695,4.3526,4.3526,0,0,1-1.5245-3.539V354.362a3.8158,3.8158,0,0,1,1.3545-3.1152,5.7416,5.7416,0,0,1,3.7588-1.1172h5.96v-.7451a2.1953,2.1953,0,0,0-.5928-1.7266,3.6855,3.6855,0,0,0-2.1494-.44Q545.2351,347.2175,540.9685,347.488Zm3.6573,7.247v.6436q0,1.7271,1.9638,1.7266a6.9153,6.9153,0,0,0,4.1651-1.625v-2.337h-4.5039A1.4406,1.4406,0,0,0,544.6258,354.735Z"/>
    <path class="d" d="M564.74,336.7536v18.2519q0,1.6935,1.8965,1.6934h1.3545l.5762,3.4883a8.97,8.97,0,0,1-3.9961.6767,4.9557,4.9557,0,0,1-3.5215-1.2021,4.4259,4.4259,0,0,1-1.2871-3.4033V336.7536Z"/>
    <path class="d" d="M587.6658,345.9645l-2.1.2705a6.1527,6.1527,0,0,1,.4063,2.4043,4.6867,4.6867,0,0,1-1.7442,4.1319q-1.7446,1.2188-6.1123,1.2187a24.2318,24.2318,0,0,1-2.8779-.1689,1.2033,1.2033,0,0,0-.1524,1.2187,1.2376,1.2376,0,0,0,1.1338.7783l6.0615.712a5.9815,5.9815,0,0,1,3.7081,1.4892,4.859,4.859,0,0,1,1.1347,3.4883q0,3.1832-1.9131,4.3008t-6.8574,1.1172q-5.1474,0-6.9756-1.0664t-1.8291-3.9112a3.5537,3.5537,0,0,1,.5928-2.1172,5.1136,5.1136,0,0,1,2.0488-1.5068,3.3608,3.3608,0,0,1,.542-5.1465q-2.4726-1.1514-2.4726-4.5039,0-2.9458,1.7617-4.165,1.7592-1.2187,6.1289-1.22a16.831,16.831,0,0,1,4.3682.4746h5.3837Zm-8.06,13.85-4.1992-.44a2.4979,2.4979,0,0,0-1.084,1.9307q0,1.2188.7452,1.5576a15.3178,15.3178,0,0,0,6.4853-.0166,1.4453,1.4453,0,0,0,.7959-1.4736q0-.88-.5088-1.1172A9.0206,9.0206,0,0,0,579.6062,359.8141Zm-1.49-9.0078a4.7769,4.7769,0,0,0,2.5234-.4736,1.9059,1.9059,0,0,0,.6934-1.6934,1.875,1.875,0,0,0-.6768-1.6933,5.0853,5.0853,0,0,0-2.54-.44,5.1892,5.1892,0,0,0-2.5566.44,1.8538,1.8538,0,0,0-.6944,1.6933,1.9041,1.9041,0,0,0,.6944,1.6934A4.8609,4.8609,0,0,0,578.116,350.8063Z"/>
    <path class="d" d="M598.13,343.2888q4.6728,0,6.62,2.0156,1.9467,2.0141,1.9473,6.8232t-1.9473,6.7891q-1.9482,1.9819-6.62,1.9814-4.708,0-6.6543-1.9814-1.9482-1.98-1.9473-6.7891,0-4.8427,1.9473-6.8408T598.13,343.2888Zm0,3.7587a3.0029,3.0029,0,0,0-2.6758,1.0166q-.6768,1.0152-.6768,4.0635a7.9743,7.9743,0,0,0,.6768,3.9961,3.005,3.005,0,0,0,2.6758,1.0156,2.968,2.968,0,0,0,2.624-1.0156,7.8,7.8,0,0,0,.6943-3.9961,8.1635,8.1635,0,0,0-.6777-4.0469A2.9378,2.9378,0,0,0,598.13,347.0475Z"/>
    <path class="d" d="M622.1033,343.2888l-.5078,4.64H620.241a18.25,18.25,0,0,0-5.1133,1.1514v11.3779H610.116V343.7634h3.8945l.4405,2.4384a10.5248,10.5248,0,0,1,6.7724-2.913Z"/>
    <path class="d" d="M625.9978,336.3815h2.2354a1.2874,1.2874,0,0,1,1.456,1.4561v1.8281a1.2874,1.2874,0,0,1-1.456,1.4561h-2.2354a1.287,1.287,0,0,1-1.456-1.4561v-1.8281A1.287,1.287,0,0,1,625.9978,336.3815Zm3.6231,24.0762h-4.9775V343.7634h4.9775Z"/>
    <path class="d" d="M640.3553,347.1159v7.89a1.7464,1.7464,0,0,0,.4062,1.3213,2.1084,2.1084,0,0,0,1.4219.3721h2.1338l.542,3.4883a14.3229,14.3229,0,0,1-4.7071.6767,4.7224,4.7224,0,0,1-3.5214-1.2695,4.8189,4.8189,0,0,1-1.253-3.539v-8.94h-2.9463v-3.1836l2.9463-.1689v-4.6729h4.9776v4.6729h4.64v3.3525Z"/>
    <path class="d" d="M652.8172,336.7536v5.791a20.4209,20.4209,0,0,1-.3047,3.4873,11.1356,11.1356,0,0,1,6.84-2.7431,4.7423,4.7423,0,0,1,3.4717,1.1855,4.6452,4.6452,0,0,1,1.2022,3.4541v12.5293h-4.9786V349.486a2.4675,2.4675,0,0,0-.3554-1.541,1.594,1.594,0,0,0-1.27-.4229,10.55,10.55,0,0,0-4.64,1.5235v11.4121h-5.0117V336.7536Z"/>
    <path class="d" d="M672.0516,343.7634l.3388,2.4384a9.52,9.52,0,0,1,6.3662-2.913q3.3853,0,4.3008,2.7089a8.9781,8.9781,0,0,1,6.0947-2.7089,4.1569,4.1569,0,0,1,4.64,4.64v12.5293h-4.9785V349.486a2.39,2.39,0,0,0-.3721-1.5234,1.7639,1.7639,0,0,0-1.3887-.44,4.0732,4.0732,0,0,0-1.5576.3047,16.44,16.44,0,0,0-2.167,1.1856v11.4453h-4.8086V349.486a2.181,2.181,0,0,0-.4228-1.5234,1.8415,1.8415,0,0,0-1.3721-.44,7.9534,7.9534,0,0,0-3.69,1.4561v11.4795h-4.9785V343.7634Z"/>
  </g>
  <rect class="e" x="84.9586" y="459.3269" width="293.082" height="64.5842"/>
  <g>
    <path d="M150.3074,483.1667q1.8589-2.2045,6.6426-2.2041t6.6572,2.2041q1.8735,2.2045,1.8731,8.1133t-1.8731,8.1123q-1.8735,2.2046-6.6572,2.205t-6.6426-2.205q-1.8588-2.2047-1.8594-8.1123T150.3074,483.1667Zm9.7119,2.7519a4.0417,4.0417,0,0,0-6.1386,0q-.8218,1.4136-.8213,5.3614t.8213,5.36a4.0417,4.0417,0,0,0,6.1386,0q.8219-1.4121.8213-5.36T160.0193,485.9186Z"/>
    <path d="M178.7654,486.611l-.4316,3.9483h-1.1533a15.562,15.562,0,0,0-4.3516.9795v9.6835h-4.2656v-14.208h3.3144l.375,2.0752a8.9575,8.9575,0,0,1,5.7637-2.4785Z"/>
    <path d="M182.08,480.7311h1.9013a1.0958,1.0958,0,0,1,1.2393,1.2393v1.5566a1.0954,1.0954,0,0,1-1.2393,1.2393H182.08a1.0954,1.0954,0,0,1-1.2393-1.2393V481.97A1.0958,1.0958,0,0,1,182.08,480.7311Zm3.083,20.4912h-4.2363v-14.208h4.2363Z"/>
    <path d="M203.118,488.8874l-1.7871.2305a5.2311,5.2311,0,0,1,.3457,2.0468,3.984,3.984,0,0,1-1.4844,3.5157q-1.484,1.0371-5.2012,1.0371a20.777,20.777,0,0,1-2.45-.1436,1.0278,1.0278,0,0,0-.13,1.0371,1.056,1.056,0,0,0,.9658.6631l5.1592.6055a5.0938,5.0938,0,0,1,3.1553,1.2675,4.137,4.137,0,0,1,.9658,2.9688q0,2.7086-1.6289,3.66-1.6274.9506-5.8359.9511-4.3814,0-5.9365-.9082a3.5218,3.5218,0,0,1-1.5567-3.3291,3.02,3.02,0,0,1,.5049-1.8008,4.3471,4.3471,0,0,1,1.7432-1.2822,2.863,2.863,0,0,1,.4609-4.3808q-2.1034-.98-2.1035-3.8331a4.0009,4.0009,0,0,1,1.499-3.5449q1.4972-1.0371,5.2158-1.0371a14.3571,14.3571,0,0,1,3.7178.4033h4.582Zm-6.8594,11.7871-3.5733-.374a2.1228,2.1228,0,0,0-.9228,1.6425q0,1.0373.6348,1.3252a8.0711,8.0711,0,0,0,2.7373.2881,8.1589,8.1589,0,0,0,2.7812-.3017,1.2306,1.2306,0,0,0,.6777-1.2539q0-.75-.4326-.9512A7.7054,7.7054,0,0,0,196.2586,500.6745Zm-1.2676-7.666a4.056,4.056,0,0,0,2.1465-.4033,1.6205,1.6205,0,0,0,.5908-1.4405,1.5963,1.5963,0,0,0-.5762-1.4414,4.3284,4.3284,0,0,0-2.1611-.375,4.4138,4.4138,0,0,0-2.1758.375,1.5764,1.5764,0,0,0-.5908,1.4414,1.6181,1.6181,0,0,0,.5908,1.4405A4.13,4.13,0,0,0,194.991,493.0085Z"/>
    <path d="M206.7205,480.7311h1.9014a1.0958,1.0958,0,0,1,1.2392,1.2393v1.5566a1.0954,1.0954,0,0,1-1.2392,1.2393h-1.9014a1.0954,1.0954,0,0,1-1.2393-1.2393V481.97A1.0958,1.0958,0,0,1,206.7205,480.7311Zm3.083,20.4912h-4.2363v-14.208h4.2363Z"/>
    <path d="M216.865,487.0143l.3164,2.1036a9.7005,9.7005,0,0,1,6.0811-2.5069,4.0336,4.0336,0,0,1,2.9541,1.0088,3.9513,3.9513,0,0,1,1.0234,2.94v10.663h-4.2373v-9.3378a2.1024,2.1024,0,0,0-.3017-1.3106,1.3554,1.3554,0,0,0-1.0811-.36,9.9474,9.9474,0,0,0-3.9482,1.2968v9.7119H213.406v-14.208Z"/>
    <path d="M231.0437,490.1843l-.4033-2.8819a41.7044,41.7044,0,0,1,7.4063-.6914,6.3939,6.3939,0,0,1,4.2363,1.167q1.355,1.1675,1.3545,4.0488v9.3955h-3.3721l-.4316-2.1611a6.63,6.63,0,0,1-5.2451,2.5068,5.0487,5.0487,0,0,1-3.3438-1.081,3.7038,3.7038,0,0,1-1.2969-3.0107v-1.4415a3.247,3.247,0,0,1,1.1534-2.6513,4.8863,4.8863,0,0,1,3.1992-.9512h5.0722v-.6338a1.871,1.871,0,0,0-.5048-1.47,3.139,3.139,0,0,0-1.83-.375Q234.6751,489.9538,231.0437,490.1843Zm3.1123,6.1679v.5469q0,1.4708,1.6719,1.47a5.8867,5.8867,0,0,0,3.5449-1.3828v-1.9883H235.54A1.2257,1.2257,0,0,0,234.156,496.3522Z"/>
    <path d="M251.2752,481.0485v15.5342q0,1.4414,1.6142,1.44h1.1524l.49,2.9688a7.6366,7.6366,0,0,1-3.4013.5761,4.2156,4.2156,0,0,1-2.9971-1.0234,3.7648,3.7648,0,0,1-1.0947-2.8955V481.0485Z"/>
    <path d="M271.7947,483.5846h-2.68a2.13,2.13,0,0,0-1.4843.4034,1.97,1.97,0,0,0-.418,1.4414v1.5849h3.9189v2.8536h-3.9189v11.3544h-4.294V489.8679H260.44v-2.71l2.4785-.1436v-2.1611q0-4.3813,4.669-4.3809a27.7285,27.7285,0,0,1,4.61.2881Z"/>
    <path d="M274.5613,480.7311h1.9014a1.0957,1.0957,0,0,1,1.2392,1.2393v1.5566a1.0953,1.0953,0,0,1-1.2392,1.2393h-1.9014a1.0953,1.0953,0,0,1-1.2392-1.2393V481.97A1.0957,1.0957,0,0,1,274.5613,480.7311Zm3.083,20.4912H273.408v-14.208h4.2363Z"/>
    <path d="M285.5125,481.0485v15.5342q0,1.4414,1.6142,1.44h1.1524l.49,2.9688a7.6366,7.6366,0,0,1-3.4013.5761,4.2156,4.2156,0,0,1-2.9971-1.0234,3.7648,3.7648,0,0,1-1.0947-2.8955V481.0485Z"/>
    <path d="M299.7205,495.5446h-5.13a2.9408,2.9408,0,0,0,.9365,2.09,4.25,4.25,0,0,0,2.4356.5332,51.5484,51.5484,0,0,0,5.3027-.3174l.4033,2.6513a14.6006,14.6006,0,0,1-6.1962,1.0664q-4.0064,0-5.7061-1.7294t-1.7012-5.7061q0-4.1778,1.6573-5.8506,1.6566-1.67,5.5771-1.6709,3.5449,0,5.13,1.2246a4.4892,4.4892,0,0,1,1.6133,3.7324,3.9836,3.9836,0,0,1-1.0225,2.9825A4.6112,4.6112,0,0,1,299.7205,495.5446Zm-5.2168-2.5644h4.0352a1.2325,1.2325,0,0,0,1.0517-.375,1.8387,1.8387,0,0,0,.2735-1.0948,1.6474,1.6474,0,0,0-.5186-1.3984,3.3453,3.3453,0,0,0-1.9023-.3887,3.0351,3.0351,0,0,0-2.2481.6485A4.2709,4.2709,0,0,0,294.5037,492.98Z"/>
  </g>
  <rect class="f" x="86.9586" y="176.089" width="280.9234" height="267.3914"/>
  <g>
    <path d="M110.5857,194.0261q4.2642,0,5.9649,2.3046,1.7007,2.3071,1.7011,8.0127t-1.7011,8.0118q-1.7007,2.3057-5.9649,2.3056-4.2378,0-5.9375-2.3056t-1.7-8.0118q0-5.7069,1.7-8.0127Q106.3489,194.0265,110.5857,194.0261Zm-.0293,3.4863a2.6179,2.6179,0,0,0-2.6084,1.3984q-.6766,1.3976-.6767,5.4326t.6767,5.4317a2.6164,2.6164,0,0,0,2.6084,1.3984,2.7,2.7,0,0,0,2.6807-1.3984q.6913-1.3976.6914-5.4317t-.6914-5.4326A2.7016,2.7016,0,0,0,110.5564,197.5124Z"/>
    <path d="M129.3475,214.2858h-4.3809V200.279a11.5791,11.5791,0,0,1,.1728-2.1611l-4.64,1.2109-.5186-2.94,4.9854-1.9883h4.3809Z"/>
    <path d="M141.0769,194.0261q4.2642,0,5.9649,2.3046,1.7007,2.3071,1.7012,8.0127t-1.7012,8.0118q-1.7007,2.3057-5.9649,2.3056-4.2378,0-5.9375-2.3056t-1.7-8.0118q0-5.7069,1.7-8.0127Q136.84,194.0265,141.0769,194.0261Zm-.0293,3.4863a2.6179,2.6179,0,0,0-2.6084,1.3984q-.6766,1.3976-.6767,5.4326t.6767,5.4317a2.6164,2.6164,0,0,0,2.6084,1.3984,2.7,2.7,0,0,0,2.6807-1.3984q.6913-1.3976.6914-5.4317t-.6914-5.4326A2.7016,2.7016,0,0,0,141.0476,197.5124Z"/>
    <path d="M159.2049,194.0261q4.264,0,5.9648,2.3046,1.7007,2.3071,1.7012,8.0127t-1.7012,8.0118q-1.7007,2.3057-5.9648,2.3056-4.2378,0-5.9375-2.3056t-1.7-8.0118q0-5.7069,1.7-8.0127Q154.9681,194.0265,159.2049,194.0261Zm-.0293,3.4863a2.6179,2.6179,0,0,0-2.6084,1.3984q-.6768,1.3976-.6768,5.4326t.6768,5.4317a2.6164,2.6164,0,0,0,2.6084,1.3984,2.7,2.7,0,0,0,2.6806-1.3984q.6915-1.3976.6914-5.4317t-.6914-5.4326A2.7016,2.7016,0,0,0,159.1756,197.5124Z"/>
    <path d="M177.9666,214.2858h-4.3809V200.279a11.5782,11.5782,0,0,1,.1729-2.1611l-4.64,1.2109-.5185-2.94,4.9853-1.9883h4.3809Z"/>
    <path d="M189.6961,194.0261q4.2642,0,5.9648,2.3046,1.7007,2.3071,1.7012,8.0127t-1.7012,8.0118q-1.7007,2.3057-5.9648,2.3056-4.2378,0-5.9375-2.3056t-1.7-8.0118q0-5.7069,1.7-8.0127Q185.4593,194.0265,189.6961,194.0261Zm-.0293,3.4863a2.6179,2.6179,0,0,0-2.6084,1.3984q-.6768,1.3976-.6768,5.4326t.6768,5.4317a2.6164,2.6164,0,0,0,2.6084,1.3984,2.7,2.7,0,0,0,2.6807-1.3984q.6914-1.3976.6914-5.4317t-.6914-5.4326A2.7017,2.7017,0,0,0,189.6668,197.5124Z"/>
    <path d="M208.4578,214.2858h-4.3809V200.279a11.5782,11.5782,0,0,1,.1729-2.1611l-4.64,1.2109-.5185-2.94,4.9853-1.9883h4.3809Z"/>
    <path d="M220.1873,194.0261q4.2642,0,5.9648,2.3046,1.7007,2.3071,1.7012,8.0127t-1.7012,8.0118q-1.7005,2.3057-5.9648,2.3056-4.2378,0-5.9375-2.3056t-1.7-8.0118q0-5.7069,1.7-8.0127Q215.9505,194.0265,220.1873,194.0261Zm-.0293,3.4863a2.6179,2.6179,0,0,0-2.6084,1.3984q-.6768,1.3976-.6768,5.4326t.6768,5.4317a2.6164,2.6164,0,0,0,2.6084,1.3984,2.7,2.7,0,0,0,2.6807-1.3984q.6914-1.3976.6914-5.4317t-.6914-5.4326A2.7017,2.7017,0,0,0,220.158,197.5124Z"/>
    <path d="M238.949,214.2858h-4.3808V200.279a11.5791,11.5791,0,0,1,.1728-2.1611l-4.64,1.2109-.5186-2.94,4.9854-1.9883h4.3808Z"/>
    <path d="M250.6785,194.0261q4.2642,0,5.9649,2.3046,1.7006,2.3071,1.7011,8.0127t-1.7011,8.0118q-1.7007,2.3057-5.9649,2.3056-4.2378,0-5.9375-2.3056t-1.7-8.0118q0-5.7069,1.7-8.0127Q246.4417,194.0265,250.6785,194.0261Zm-.0293,3.4863a2.6179,2.6179,0,0,0-2.6084,1.3984q-.6768,1.3976-.6767,5.4326t.6767,5.4317a2.6164,2.6164,0,0,0,2.6084,1.3984,2.7,2.7,0,0,0,2.6807-1.3984q.6913-1.3976.6914-5.4317t-.6914-5.4326A2.7016,2.7016,0,0,0,250.6492,197.5124Z"/>
    <path d="M268.8064,194.0261q4.2642,0,5.9649,2.3046,1.7007,2.3071,1.7012,8.0127t-1.7012,8.0118q-1.7007,2.3057-5.9649,2.3056-4.2378,0-5.9375-2.3056t-1.7-8.0118q0-5.7069,1.7-8.0127Q264.57,194.0265,268.8064,194.0261Zm-.0293,3.4863a2.6179,2.6179,0,0,0-2.6084,1.3984q-.6766,1.3976-.6767,5.4326t.6767,5.4317a2.6164,2.6164,0,0,0,2.6084,1.3984,2.7,2.7,0,0,0,2.6807-1.3984q.6913-1.3976.6914-5.4317t-.6914-5.4326A2.7016,2.7016,0,0,0,268.7771,197.5124Z"/>
    <path d="M287.5682,214.2858h-4.3809V200.279a11.5791,11.5791,0,0,1,.1728-2.1611l-4.64,1.2109-.5186-2.94,4.9854-1.9883h4.3809Z"/>
    <path d="M299.2976,194.0261q4.2642,0,5.9649,2.3046,1.7007,2.3071,1.7012,8.0127t-1.7012,8.0118q-1.7007,2.3057-5.9649,2.3056-4.2376,0-5.9375-2.3056t-1.7-8.0118q0-5.7069,1.7-8.0127Q295.0608,194.0265,299.2976,194.0261Zm-.0292,3.4863a2.6177,2.6177,0,0,0-2.6084,1.3984q-.6768,1.3976-.6768,5.4326t.6768,5.4317a2.6162,2.6162,0,0,0,2.6084,1.3984,2.7,2.7,0,0,0,2.6806-1.3984q.6915-1.3976.6914-5.4317t-.6914-5.4326A2.7016,2.7016,0,0,0,299.2684,197.5124Z"/>
    <path d="M318.0594,214.2858h-4.3809V200.279a11.57,11.57,0,0,1,.1729-2.1611l-4.64,1.2109-.5185-2.94,4.9853-1.9883h4.3809Z"/>
    <path d="M329.7889,194.0261q4.264,0,5.9648,2.3046,1.7007,2.3071,1.7012,8.0127t-1.7012,8.0118q-1.7007,2.3057-5.9648,2.3056-4.2378,0-5.9375-2.3056t-1.7-8.0118q0-5.7069,1.7-8.0127Q325.5519,194.0265,329.7889,194.0261Zm-.0293,3.4863a2.6178,2.6178,0,0,0-2.6084,1.3984q-.6768,1.3976-.6768,5.4326t.6768,5.4317a2.6163,2.6163,0,0,0,2.6084,1.3984,2.7,2.7,0,0,0,2.6806-1.3984q.6915-1.3976.6914-5.4317t-.6914-5.4326A2.7016,2.7016,0,0,0,329.76,197.5124Z"/>
    <path d="M348.5506,214.2858H344.17V200.279a11.57,11.57,0,0,1,.1729-2.1611l-4.64,1.2109-.5185-2.94L344.17,194.4h4.3809Z"/>
    <path d="M110.5857,228.61q4.2642,0,5.9649,2.3047,1.7007,2.3071,1.7011,8.0127t-1.7011,8.0117q-1.7007,2.3058-5.9649,2.3057-4.2378,0-5.9375-2.3057t-1.7-8.0117q0-5.7071,1.7-8.0127T110.5857,228.61Zm-.0293,3.4864a2.6179,2.6179,0,0,0-2.6084,1.3984q-.6766,1.3974-.6767,5.4326t.6767,5.4317a2.6164,2.6164,0,0,0,2.6084,1.3984,2.7,2.7,0,0,0,2.6807-1.3984q.6913-1.3976.6914-5.4317t-.6914-5.4326A2.7016,2.7016,0,0,0,110.5564,232.0964Z"/>
    <path d="M129.3475,248.87h-4.3809V234.863a11.58,11.58,0,0,1,.1728-2.1612l-4.64,1.211-.5186-2.9405,4.9854-1.9882h4.3809Z"/>
    <path d="M141.7107,248.87H137.33V234.863a11.58,11.58,0,0,1,.1728-2.1612l-4.64,1.211-.5186-2.9405,4.9854-1.9882h4.3808Z"/>
    <path d="M153.44,228.61q4.2642,0,5.9649,2.3047,1.7007,2.3071,1.7011,8.0127t-1.7011,8.0117q-1.7007,2.3058-5.9649,2.3057-4.2378,0-5.9375-2.3057t-1.7-8.0117q0-5.7071,1.7-8.0127T153.44,228.61Zm-.0293,3.4864a2.6179,2.6179,0,0,0-2.6084,1.3984q-.6766,1.3974-.6767,5.4326t.6767,5.4317a2.6164,2.6164,0,0,0,2.6084,1.3984,2.7,2.7,0,0,0,2.6807-1.3984q.6914-1.3976.6914-5.4317t-.6914-5.4326A2.7016,2.7016,0,0,0,153.4109,232.0964Z"/>
    <path d="M172.2019,248.87h-4.3808V234.863a11.58,11.58,0,0,1,.1728-2.1612l-4.64,1.211-.5186-2.9405,4.9854-1.9882h4.3808Z"/>
    <path d="M183.9314,228.61q4.2642,0,5.9649,2.3047,1.7007,2.3071,1.7012,8.0127t-1.7012,8.0117q-1.7007,2.3058-5.9649,2.3057-4.2378,0-5.9375-2.3057t-1.7-8.0117q0-5.7071,1.7-8.0127T183.9314,228.61Zm-.0293,3.4864a2.6179,2.6179,0,0,0-2.6084,1.3984q-.6766,1.3974-.6767,5.4326t.6767,5.4317a2.6164,2.6164,0,0,0,2.6084,1.3984,2.7,2.7,0,0,0,2.6807-1.3984q.6914-1.3976.6914-5.4317t-.6914-5.4326A2.7016,2.7016,0,0,0,183.9021,232.0964Z"/>
    <path d="M202.6932,248.87h-4.3809V234.863a11.58,11.58,0,0,1,.1728-2.1612l-4.64,1.211-.5186-2.9405,4.9854-1.9882h4.3809Z"/>
    <path d="M214.4226,228.61q4.2642,0,5.9649,2.3047,1.7007,2.3071,1.7012,8.0127t-1.7012,8.0117q-1.7007,2.3058-5.9649,2.3057-4.2376,0-5.9375-2.3057t-1.7-8.0117q0-5.7071,1.7-8.0127T214.4226,228.61Zm-.0292,3.4864a2.6177,2.6177,0,0,0-2.6084,1.3984q-.6768,1.3974-.6768,5.4326t.6768,5.4317a2.6162,2.6162,0,0,0,2.6084,1.3984,2.7,2.7,0,0,0,2.6806-1.3984q.6915-1.3976.6914-5.4317t-.6914-5.4326A2.7016,2.7016,0,0,0,214.3934,232.0964Z"/>
    <path d="M233.1844,248.87h-4.3809V234.863a11.57,11.57,0,0,1,.1729-2.1612l-4.64,1.211-.5185-2.9405,4.9853-1.9882h4.3809Z"/>
    <path d="M245.5476,248.87h-4.3808V234.863a11.58,11.58,0,0,1,.1728-2.1612l-4.64,1.211-.5186-2.9405,4.9854-1.9882h4.3808Z"/>
    <path d="M257.2771,228.61q4.2642,0,5.9649,2.3047,1.7007,2.3071,1.7012,8.0127t-1.7012,8.0117q-1.7007,2.3058-5.9649,2.3057-4.2378,0-5.9375-2.3057t-1.7-8.0117q0-5.7071,1.7-8.0127T257.2771,228.61Zm-.0293,3.4864a2.6179,2.6179,0,0,0-2.6084,1.3984q-.6766,1.3974-.6767,5.4326t.6767,5.4317a2.6164,2.6164,0,0,0,2.6084,1.3984,2.7,2.7,0,0,0,2.6807-1.3984q.6914-1.3976.6914-5.4317t-.6914-5.4326A2.7016,2.7016,0,0,0,257.2478,232.0964Z"/>
    <path d="M276.0389,248.87H271.658V234.863a11.57,11.57,0,0,1,.1729-2.1612l-4.64,1.211-.5186-2.9405,4.9854-1.9882h4.3809Z"/>
    <path d="M288.4021,248.87h-4.3808V234.863a11.58,11.58,0,0,1,.1728-2.1612l-4.64,1.211-.5186-2.9405,4.9854-1.9882h4.3808Z"/>
    <path d="M300.1316,228.61q4.2642,0,5.9649,2.3047,1.7007,2.3071,1.7011,8.0127t-1.7011,8.0117q-1.7007,2.3058-5.9649,2.3057-4.2378,0-5.9375-2.3057t-1.7-8.0117q0-5.7071,1.7-8.0127T300.1316,228.61Zm-.0293,3.4864a2.6179,2.6179,0,0,0-2.6084,1.3984q-.6766,1.3974-.6767,5.4326t.6767,5.4317a2.6164,2.6164,0,0,0,2.6084,1.3984,2.7,2.7,0,0,0,2.6807-1.3984q.6913-1.3976.6914-5.4317t-.6914-5.4326A2.7016,2.7016,0,0,0,300.1023,232.0964Z"/>
    <path d="M318.8934,248.87h-4.3809V234.863a11.58,11.58,0,0,1,.1728-2.1612l-4.64,1.211-.5186-2.9405,4.9854-1.9882h4.3809Z"/>
    <path d="M330.6228,228.61q4.2642,0,5.9649,2.3047,1.7007,2.3071,1.7012,8.0127t-1.7012,8.0117q-1.7007,2.3058-5.9649,2.3057-4.2378,0-5.9375-2.3057t-1.7-8.0117q0-5.7071,1.7-8.0127T330.6228,228.61Zm-.0293,3.4864a2.6179,2.6179,0,0,0-2.6084,1.3984q-.6766,1.3974-.6767,5.4326t.6767,5.4317a2.6164,2.6164,0,0,0,2.6084,1.3984,2.7,2.7,0,0,0,2.6807-1.3984q.6913-1.3976.6914-5.4317t-.6914-5.4326A2.7016,2.7016,0,0,0,330.5935,232.0964Z"/>
    <path d="M111.22,283.4528h-4.3808V269.446a11.58,11.58,0,0,1,.1728-2.1612l-4.64,1.211-.5186-2.94,4.9854-1.9883H111.22Z"/>
    <path d="M122.949,263.193q4.2642,0,5.9649,2.3047,1.7005,2.3071,1.7011,8.0127t-1.7011,8.0117q-1.7007,2.3058-5.9649,2.3057-4.2378,0-5.9375-2.3057t-1.7-8.0117q0-5.7071,1.7-8.0127T122.949,263.193Zm-.0293,3.4864a2.6179,2.6179,0,0,0-2.6084,1.3984q-.6768,1.3975-.6767,5.4326t.6767,5.4317a2.6164,2.6164,0,0,0,2.6084,1.3984,2.7,2.7,0,0,0,2.6807-1.3984q.6914-1.3975.6914-5.4317t-.6914-5.4326A2.7016,2.7016,0,0,0,122.92,266.6794Z"/>
    <path d="M141.7107,283.4528H137.33V269.446a11.58,11.58,0,0,1,.1728-2.1612l-4.64,1.211-.5186-2.94,4.9854-1.9883h4.3808Z"/>
    <path d="M153.44,263.193q4.2642,0,5.9649,2.3047,1.7007,2.3071,1.7011,8.0127t-1.7011,8.0117q-1.7007,2.3058-5.9649,2.3057-4.2378,0-5.9375-2.3057t-1.7-8.0117q0-5.7071,1.7-8.0127T153.44,263.193Zm-.0293,3.4864a2.6179,2.6179,0,0,0-2.6084,1.3984q-.6766,1.3975-.6767,5.4326t.6767,5.4317a2.6164,2.6164,0,0,0,2.6084,1.3984,2.7,2.7,0,0,0,2.6807-1.3984q.6914-1.3975.6914-5.4317t-.6914-5.4326A2.7016,2.7016,0,0,0,153.4109,266.6794Z"/>
    <path d="M172.2019,283.4528h-4.3808V269.446a11.58,11.58,0,0,1,.1728-2.1612l-4.64,1.211-.5186-2.94,4.9854-1.9883h4.3808Z"/>
    <path d="M184.5652,283.4528h-4.3808V269.446a11.58,11.58,0,0,1,.1728-2.1612l-4.64,1.211-.5186-2.94,4.9854-1.9883h4.3808Z"/>
    <path d="M196.9285,283.4528h-4.3809V269.446a11.5794,11.5794,0,0,1,.1729-2.1612l-4.64,1.211-.5186-2.94,4.9853-1.9883h4.3809Z"/>
    <path d="M208.658,263.193q4.2642,0,5.9648,2.3047,1.7007,2.3071,1.7012,8.0127t-1.7012,8.0117q-1.7005,2.3058-5.9648,2.3057-4.2378,0-5.9375-2.3057t-1.7-8.0117q0-5.7071,1.7-8.0127T208.658,263.193Zm-.0293,3.4864a2.6179,2.6179,0,0,0-2.6084,1.3984q-.6768,1.3975-.6768,5.4326t.6768,5.4317a2.6164,2.6164,0,0,0,2.6084,1.3984,2.7,2.7,0,0,0,2.6807-1.3984q.6913-1.3975.6914-5.4317t-.6914-5.4326A2.7016,2.7016,0,0,0,208.6287,266.6794Z"/>
    <path d="M227.42,283.4528h-4.3808V269.446a11.58,11.58,0,0,1,.1728-2.1612l-4.64,1.211-.5186-2.94,4.9854-1.9883H227.42Z"/>
    <path d="M239.783,283.4528h-4.3809V269.446a11.5794,11.5794,0,0,1,.1729-2.1612l-4.64,1.211-.5185-2.94,4.9853-1.9883h4.3809Z"/>
    <path d="M251.5125,263.193q4.2642,0,5.9648,2.3047,1.7007,2.3071,1.7012,8.0127t-1.7012,8.0117q-1.7007,2.3058-5.9648,2.3057-4.2378,0-5.9375-2.3057t-1.7-8.0117q0-5.7071,1.7-8.0127T251.5125,263.193Zm-.0293,3.4864a2.6179,2.6179,0,0,0-2.6084,1.3984q-.6768,1.3975-.6768,5.4326t.6768,5.4317a2.6164,2.6164,0,0,0,2.6084,1.3984,2.7,2.7,0,0,0,2.6807-1.3984q.6913-1.3975.6914-5.4317t-.6914-5.4326A2.7017,2.7017,0,0,0,251.4832,266.6794Z"/>
    <path d="M270.2742,283.4528h-4.3808V269.446a11.58,11.58,0,0,1,.1728-2.1612l-4.64,1.211-.5186-2.94,4.9854-1.9883h4.3808Z"/>
    <path d="M282.0037,263.193q4.2642,0,5.9648,2.3047,1.7007,2.3071,1.7012,8.0127t-1.7012,8.0117q-1.7006,2.3058-5.9648,2.3057-4.2378,0-5.9375-2.3057t-1.7-8.0117q0-5.7071,1.7-8.0127T282.0037,263.193Zm-.0293,3.4864a2.6179,2.6179,0,0,0-2.6084,1.3984q-.6768,1.3975-.6768,5.4326t.6768,5.4317a2.6164,2.6164,0,0,0,2.6084,1.3984,2.7,2.7,0,0,0,2.6807-1.3984q.6913-1.3975.6914-5.4317t-.6914-5.4326A2.7016,2.7016,0,0,0,281.9744,266.6794Z"/>
    <path d="M300.7654,283.4528h-4.3808V269.446a11.58,11.58,0,0,1,.1728-2.1612l-4.64,1.211-.5186-2.94,4.9854-1.9883h4.3808Z"/>
    <path d="M313.1287,283.4528h-4.3809V269.446a11.5794,11.5794,0,0,1,.1729-2.1612l-4.64,1.211-.5185-2.94,4.9853-1.9883h4.3809Z"/>
    <path d="M324.8582,263.193q4.2642,0,5.9648,2.3047,1.7007,2.3071,1.7012,8.0127t-1.7012,8.0117q-1.7007,2.3058-5.9648,2.3057-4.2378,0-5.9375-2.3057t-1.7-8.0117q0-5.7071,1.7-8.0127T324.8582,263.193Zm-.0293,3.4864a2.6179,2.6179,0,0,0-2.6084,1.3984q-.6768,1.3975-.6768,5.4326t.6768,5.4317a2.6164,2.6164,0,0,0,2.6084,1.3984,2.7,2.7,0,0,0,2.6807-1.3984q.6914-1.3975.6914-5.4317t-.6914-5.4326A2.7017,2.7017,0,0,0,324.8289,266.6794Z"/>
    <path d="M111.22,318.0368h-4.3808V304.03a11.58,11.58,0,0,1,.1728-2.1612l-4.64,1.211-.5186-2.94,4.9854-1.9882H111.22Z"/>
    <path d="M123.5828,318.0368h-4.3809V304.03a11.5786,11.5786,0,0,1,.1729-2.1612l-4.64,1.211-.5185-2.94,4.9853-1.9882h4.3809Z"/>
    <path d="M135.9461,318.0368h-4.3809V304.03a11.57,11.57,0,0,1,.1729-2.1612l-4.64,1.211-.5185-2.94,4.9853-1.9882h4.3809Z"/>
    <path d="M148.3094,318.0368h-4.3809V304.03a11.57,11.57,0,0,1,.1729-2.1612l-4.64,1.211-.5185-2.94,4.9853-1.9882h4.3809Z"/>
    <path d="M160.0389,297.777q4.264,0,5.9648,2.3047,1.7007,2.3071,1.7012,8.0127t-1.7012,8.0117q-1.7007,2.3056-5.9648,2.3057-4.2378,0-5.9375-2.3057t-1.7-8.0117q0-5.7071,1.7-8.0127T160.0389,297.777Zm-.0293,3.4864a2.6178,2.6178,0,0,0-2.6084,1.3984q-.6768,1.3974-.6768,5.4326t.6768,5.4317a2.6163,2.6163,0,0,0,2.6084,1.3984,2.7,2.7,0,0,0,2.6806-1.3984q.6915-1.3975.6914-5.4317t-.6914-5.4326A2.7016,2.7016,0,0,0,160.01,301.2634Z"/>
    <path d="M178.8006,318.0368H174.42V304.03a11.57,11.57,0,0,1,.1729-2.1612l-4.64,1.211-.5185-2.94,4.9853-1.9882h4.3809Z"/>
    <path d="M191.1639,318.0368H186.783V304.03a11.57,11.57,0,0,1,.1729-2.1612l-4.64,1.211-.5186-2.94,4.9854-1.9882h4.3809Z"/>
    <path d="M202.8934,297.777q4.264,0,5.9648,2.3047,1.7007,2.3071,1.7012,8.0127t-1.7012,8.0117q-1.7007,2.3056-5.9648,2.3057-4.2378,0-5.9375-2.3057t-1.7-8.0117q0-5.7071,1.7-8.0127T202.8934,297.777Zm-.0293,3.4864a2.6177,2.6177,0,0,0-2.6084,1.3984q-.6768,1.3974-.6768,5.4326t.6768,5.4317a2.6162,2.6162,0,0,0,2.6084,1.3984,2.7,2.7,0,0,0,2.6806-1.3984q.6915-1.3975.6914-5.4317t-.6914-5.4326A2.7016,2.7016,0,0,0,202.8641,301.2634Z"/>
    <path d="M221.6551,318.0368h-4.3809V304.03a11.57,11.57,0,0,1,.1729-2.1612l-4.64,1.211-.5185-2.94,4.9853-1.9882h4.3809Z"/>
    <path d="M234.0184,318.0368h-4.3809V304.03a11.58,11.58,0,0,1,.1728-2.1612l-4.64,1.211-.5186-2.94,4.9854-1.9882h4.3809Z"/>
    <path d="M245.7478,297.777q4.2642,0,5.9649,2.3047,1.7007,2.3071,1.7012,8.0127t-1.7012,8.0117q-1.7007,2.3056-5.9649,2.3057-4.2378,0-5.9375-2.3057t-1.7-8.0117q0-5.7071,1.7-8.0127T245.7478,297.777Zm-.0293,3.4864a2.6179,2.6179,0,0,0-2.6084,1.3984q-.6766,1.3974-.6767,5.4326t.6767,5.4317a2.6164,2.6164,0,0,0,2.6084,1.3984,2.7,2.7,0,0,0,2.6807-1.3984q.6913-1.3975.6914-5.4317t-.6914-5.4326A2.7016,2.7016,0,0,0,245.7185,301.2634Z"/>
    <path d="M263.8758,297.777q4.264,0,5.9648,2.3047,1.7007,2.3071,1.7012,8.0127t-1.7012,8.0117q-1.7007,2.3056-5.9648,2.3057-4.2378,0-5.9375-2.3057t-1.7-8.0117q0-5.7071,1.7-8.0127T263.8758,297.777Zm-.0293,3.4864a2.6178,2.6178,0,0,0-2.6084,1.3984q-.6768,1.3974-.6768,5.4326t.6768,5.4317a2.6163,2.6163,0,0,0,2.6084,1.3984,2.7,2.7,0,0,0,2.6806-1.3984q.6915-1.3975.6914-5.4317t-.6914-5.4326A2.7016,2.7016,0,0,0,263.8465,301.2634Z"/>
    <path d="M282.6375,318.0368h-4.3809V304.03a11.57,11.57,0,0,1,.1729-2.1612l-4.64,1.211-.5185-2.94,4.9853-1.9882h4.3809Z"/>
    <path d="M294.367,297.777q4.2642,0,5.9648,2.3047,1.7007,2.3071,1.7012,8.0127t-1.7012,8.0117q-1.7007,2.3056-5.9648,2.3057-4.2378,0-5.9375-2.3057t-1.7-8.0117q0-5.7071,1.7-8.0127T294.367,297.777Zm-.0293,3.4864a2.6179,2.6179,0,0,0-2.6084,1.3984q-.6768,1.3974-.6768,5.4326t.6768,5.4317a2.6164,2.6164,0,0,0,2.6084,1.3984,2.7,2.7,0,0,0,2.6807-1.3984q.6914-1.3975.6914-5.4317t-.6914-5.4326A2.7017,2.7017,0,0,0,294.3377,301.2634Z"/>
    <path d="M312.4949,297.777q4.2642,0,5.9649,2.3047,1.7006,2.3071,1.7011,8.0127t-1.7011,8.0117q-1.7007,2.3056-5.9649,2.3057-4.2378,0-5.9375-2.3057t-1.7-8.0117q0-5.7071,1.7-8.0127T312.4949,297.777Zm-.0293,3.4864a2.6179,2.6179,0,0,0-2.6084,1.3984q-.6768,1.3974-.6767,5.4326t.6767,5.4317a2.6164,2.6164,0,0,0,2.6084,1.3984,2.7,2.7,0,0,0,2.6807-1.3984q.6913-1.3975.6914-5.4317t-.6914-5.4326A2.7016,2.7016,0,0,0,312.4656,301.2634Z"/>
    <path d="M331.2566,318.0368h-4.3808V304.03a11.58,11.58,0,0,1,.1728-2.1612l-4.64,1.211-.5186-2.94,4.9854-1.9882h4.3808Z"/>
    <path d="M110.5857,332.36q4.2642,0,5.9649,2.3047,1.7007,2.3072,1.7011,8.0127t-1.7011,8.0117q-1.7007,2.3058-5.9649,2.3057-4.2378,0-5.9375-2.3057t-1.7-8.0117q0-5.707,1.7-8.0127Q106.3489,332.3606,110.5857,332.36Zm-.0293,3.4864a2.6179,2.6179,0,0,0-2.6084,1.3984q-.6766,1.3974-.6767,5.4326t.6767,5.4317a2.6164,2.6164,0,0,0,2.6084,1.3984,2.7,2.7,0,0,0,2.6807-1.3984q.6913-1.3976.6914-5.4317t-.6914-5.4326A2.7016,2.7016,0,0,0,110.5564,335.8464Z"/>
    <path d="M129.3475,352.62h-4.3809V338.613a11.58,11.58,0,0,1,.1728-2.1612l-4.64,1.211-.5186-2.94,4.9854-1.9882h4.3809Z"/>
    <path d="M141.0769,332.36q4.2642,0,5.9649,2.3047,1.7007,2.3072,1.7012,8.0127t-1.7012,8.0117q-1.7007,2.3058-5.9649,2.3057-4.2378,0-5.9375-2.3057t-1.7-8.0117q0-5.707,1.7-8.0127Q136.84,332.3606,141.0769,332.36Zm-.0293,3.4864a2.6179,2.6179,0,0,0-2.6084,1.3984q-.6766,1.3974-.6767,5.4326t.6767,5.4317a2.6164,2.6164,0,0,0,2.6084,1.3984,2.7,2.7,0,0,0,2.6807-1.3984q.6913-1.3976.6914-5.4317t-.6914-5.4326A2.7016,2.7016,0,0,0,141.0476,335.8464Z"/>
    <path d="M159.8387,352.62h-4.3809V338.613a11.57,11.57,0,0,1,.1729-2.1612l-4.64,1.211-.5185-2.94,4.9853-1.9882h4.3809Z"/>
    <path d="M172.2019,352.62h-4.3808V338.613a11.58,11.58,0,0,1,.1728-2.1612l-4.64,1.211-.5186-2.94,4.9854-1.9882h4.3808Z"/>
    <path d="M184.5652,352.62h-4.3808V338.613a11.58,11.58,0,0,1,.1728-2.1612l-4.64,1.211-.5186-2.94,4.9854-1.9882h4.3808Z"/>
    <path d="M196.2947,332.36q4.2642,0,5.9649,2.3047,1.7007,2.3072,1.7011,8.0127t-1.7011,8.0117q-1.7007,2.3058-5.9649,2.3057-4.2378,0-5.9375-2.3057t-1.7-8.0117q0-5.707,1.7-8.0127Q192.0579,332.3606,196.2947,332.36Zm-.0293,3.4864a2.6179,2.6179,0,0,0-2.6084,1.3984q-.6766,1.3974-.6767,5.4326t.6767,5.4317a2.6164,2.6164,0,0,0,2.6084,1.3984,2.7,2.7,0,0,0,2.6807-1.3984q.6913-1.3976.6914-5.4317t-.6914-5.4326A2.7016,2.7016,0,0,0,196.2654,335.8464Z"/>
    <path d="M214.4226,332.36q4.2642,0,5.9649,2.3047,1.7007,2.3072,1.7012,8.0127t-1.7012,8.0117q-1.7007,2.3058-5.9649,2.3057-4.2376,0-5.9375-2.3057t-1.7-8.0117q0-5.707,1.7-8.0127Q210.1858,332.3606,214.4226,332.36Zm-.0292,3.4864a2.6177,2.6177,0,0,0-2.6084,1.3984q-.6768,1.3974-.6768,5.4326t.6768,5.4317a2.6162,2.6162,0,0,0,2.6084,1.3984,2.7,2.7,0,0,0,2.6806-1.3984q.6915-1.3976.6914-5.4317t-.6914-5.4326A2.7016,2.7016,0,0,0,214.3934,335.8464Z"/>
    <path d="M232.5506,332.36q4.2642,0,5.9648,2.3047,1.7007,2.3072,1.7012,8.0127t-1.7012,8.0117q-1.7007,2.3058-5.9648,2.3057-4.2378,0-5.9375-2.3057t-1.7-8.0117q0-5.707,1.7-8.0127Q228.3138,332.3606,232.5506,332.36Zm-.0293,3.4864a2.6179,2.6179,0,0,0-2.6084,1.3984q-.6768,1.3974-.6768,5.4326t.6768,5.4317a2.6164,2.6164,0,0,0,2.6084,1.3984,2.7,2.7,0,0,0,2.6806-1.3984q.6915-1.3976.6915-5.4317t-.6915-5.4326A2.7015,2.7015,0,0,0,232.5213,335.8464Z"/>
    <path d="M250.6785,332.36q4.2642,0,5.9649,2.3047,1.7006,2.3072,1.7011,8.0127t-1.7011,8.0117q-1.7007,2.3058-5.9649,2.3057-4.2378,0-5.9375-2.3057t-1.7-8.0117q0-5.707,1.7-8.0127Q246.4417,332.3606,250.6785,332.36Zm-.0293,3.4864a2.6179,2.6179,0,0,0-2.6084,1.3984q-.6768,1.3974-.6767,5.4326t.6767,5.4317a2.6164,2.6164,0,0,0,2.6084,1.3984,2.7,2.7,0,0,0,2.6807-1.3984q.6913-1.3976.6914-5.4317t-.6914-5.4326A2.7016,2.7016,0,0,0,250.6492,335.8464Z"/>
    <path d="M269.44,352.62h-4.3808V338.613a11.58,11.58,0,0,1,.1728-2.1612l-4.64,1.211-.5186-2.94,4.9854-1.9882H269.44Z"/>
    <path d="M281.17,332.36q4.2642,0,5.9649,2.3047,1.7007,2.3072,1.7011,8.0127t-1.7011,8.0117q-1.7007,2.3058-5.9649,2.3057-4.2378,0-5.9375-2.3057t-1.7-8.0117q0-5.707,1.7-8.0127Q276.9329,332.3606,281.17,332.36Zm-.0293,3.4864a2.6179,2.6179,0,0,0-2.6084,1.3984q-.6766,1.3974-.6767,5.4326t.6767,5.4317a2.6164,2.6164,0,0,0,2.6084,1.3984,2.7,2.7,0,0,0,2.6807-1.3984q.6913-1.3976.6914-5.4317t-.6914-5.4326A2.7016,2.7016,0,0,0,281.14,335.8464Z"/>
    <path d="M299.9314,352.62h-4.3808V338.613a11.58,11.58,0,0,1,.1728-2.1612l-4.64,1.211-.5186-2.94,4.9854-1.9882h4.3808Z"/>
    <path d="M311.6609,332.36q4.2642,0,5.9649,2.3047,1.7007,2.3072,1.7011,8.0127t-1.7011,8.0117q-1.7007,2.3058-5.9649,2.3057-4.2378,0-5.9375-2.3057t-1.7-8.0117q0-5.707,1.7-8.0127Q307.4241,332.3606,311.6609,332.36Zm-.0293,3.4864a2.6179,2.6179,0,0,0-2.6084,1.3984q-.6766,1.3974-.6767,5.4326t.6767,5.4317a2.6164,2.6164,0,0,0,2.6084,1.3984,2.7,2.7,0,0,0,2.6807-1.3984q.6913-1.3976.6914-5.4317t-.6914-5.4326A2.7016,2.7016,0,0,0,311.6316,335.8464Z"/>
    <path d="M330.4226,352.62h-4.3808V338.613a11.58,11.58,0,0,1,.1728-2.1612l-4.64,1.211-.5186-2.94,4.9854-1.9882h4.3808Z"/>
    <path d="M342.1521,332.36q4.2642,0,5.9649,2.3047,1.7007,2.3072,1.7012,8.0127t-1.7012,8.0117q-1.7007,2.3058-5.9649,2.3057-4.2378,0-5.9375-2.3057t-1.7-8.0117q0-5.707,1.7-8.0127Q337.9153,332.3606,342.1521,332.36Zm-.0293,3.4864a2.6179,2.6179,0,0,0-2.6084,1.3984q-.6766,1.3974-.6767,5.4326t.6767,5.4317a2.6164,2.6164,0,0,0,2.6084,1.3984,2.7,2.7,0,0,0,2.6807-1.3984q.6914-1.3976.6914-5.4317t-.6914-5.4326A2.7016,2.7016,0,0,0,342.1228,335.8464Z"/>
    <path d="M111.22,387.2038h-4.3808V373.197a11.58,11.58,0,0,1,.1728-2.1612l-4.64,1.211-.5186-2.94,4.9854-1.9883H111.22Z"/>
    <path d="M122.949,366.944q4.2642,0,5.9649,2.3047,1.7005,2.3072,1.7011,8.0127t-1.7011,8.0117q-1.7007,2.3057-5.9649,2.3057-4.2378,0-5.9375-2.3057t-1.7-8.0117q0-5.707,1.7-8.0127Q118.7122,366.9446,122.949,366.944ZM122.92,370.43a2.6178,2.6178,0,0,0-2.6084,1.3984q-.6768,1.3974-.6767,5.4326t.6767,5.4316a2.6163,2.6163,0,0,0,2.6084,1.3985A2.7,2.7,0,0,0,125.6,382.693q.6914-1.3974.6914-5.4316t-.6914-5.4326A2.7015,2.7015,0,0,0,122.92,370.43Z"/>
    <path d="M141.7107,387.2038H137.33V373.197a11.58,11.58,0,0,1,.1728-2.1612l-4.64,1.211-.5186-2.94,4.9854-1.9883h4.3808Z"/>
    <path d="M153.44,366.944q4.2642,0,5.9649,2.3047,1.7007,2.3072,1.7011,8.0127t-1.7011,8.0117q-1.7007,2.3057-5.9649,2.3057-4.2378,0-5.9375-2.3057t-1.7-8.0117q0-5.707,1.7-8.0127Q149.2034,366.9446,153.44,366.944Zm-.0293,3.4864a2.6178,2.6178,0,0,0-2.6084,1.3984q-.6766,1.3974-.6767,5.4326t.6767,5.4316a2.6163,2.6163,0,0,0,2.6084,1.3985,2.7,2.7,0,0,0,2.6807-1.3985q.6914-1.3974.6914-5.4316t-.6914-5.4326A2.7015,2.7015,0,0,0,153.4109,370.43Z"/>
    <path d="M171.5682,366.944q4.264,0,5.9648,2.3047,1.7007,2.3072,1.7012,8.0127t-1.7012,8.0117q-1.7007,2.3057-5.9648,2.3057-4.2378,0-5.9375-2.3057t-1.7-8.0117q0-5.707,1.7-8.0127Q167.3313,366.9446,171.5682,366.944Zm-.0293,3.4864a2.6176,2.6176,0,0,0-2.6084,1.3984q-.6768,1.3974-.6768,5.4326t.6768,5.4316a2.6161,2.6161,0,0,0,2.6084,1.3985,2.7,2.7,0,0,0,2.6806-1.3985q.6915-1.3974.6914-5.4316t-.6914-5.4326A2.7014,2.7014,0,0,0,171.5389,370.43Z"/>
    <path d="M189.6961,366.944q4.2642,0,5.9648,2.3047,1.7007,2.3072,1.7012,8.0127t-1.7012,8.0117q-1.7007,2.3057-5.9648,2.3057-4.2378,0-5.9375-2.3057t-1.7-8.0117q0-5.707,1.7-8.0127Q185.4593,366.9446,189.6961,366.944Zm-.0293,3.4864a2.6178,2.6178,0,0,0-2.6084,1.3984q-.6768,1.3974-.6768,5.4326t.6768,5.4316a2.6163,2.6163,0,0,0,2.6084,1.3985,2.7,2.7,0,0,0,2.6807-1.3985q.6914-1.3974.6914-5.4316t-.6914-5.4326A2.7016,2.7016,0,0,0,189.6668,370.43Z"/>
    <path d="M208.4578,387.2038h-4.3809V373.197a11.5786,11.5786,0,0,1,.1729-2.1612l-4.64,1.211-.5185-2.94,4.9853-1.9883h4.3809Z"/>
    <path d="M220.1873,366.944q4.2642,0,5.9648,2.3047,1.7007,2.3072,1.7012,8.0127t-1.7012,8.0117q-1.7005,2.3057-5.9648,2.3057-4.2378,0-5.9375-2.3057t-1.7-8.0117q0-5.707,1.7-8.0127Q215.9505,366.9446,220.1873,366.944Zm-.0293,3.4864a2.6178,2.6178,0,0,0-2.6084,1.3984q-.6768,1.3974-.6768,5.4326t.6768,5.4316a2.6163,2.6163,0,0,0,2.6084,1.3985,2.7,2.7,0,0,0,2.6807-1.3985q.6914-1.3974.6914-5.4316t-.6914-5.4326A2.7016,2.7016,0,0,0,220.158,370.43Z"/>
    <path d="M238.949,387.2038h-4.3808V373.197a11.58,11.58,0,0,1,.1728-2.1612l-4.64,1.211-.5186-2.94,4.9854-1.9883h4.3808Z"/>
    <path d="M250.6785,366.944q4.2642,0,5.9649,2.3047,1.7006,2.3072,1.7011,8.0127t-1.7011,8.0117q-1.7007,2.3057-5.9649,2.3057-4.2378,0-5.9375-2.3057t-1.7-8.0117q0-5.707,1.7-8.0127Q246.4417,366.9446,250.6785,366.944Zm-.0293,3.4864a2.6178,2.6178,0,0,0-2.6084,1.3984q-.6768,1.3974-.6767,5.4326t.6767,5.4316a2.6163,2.6163,0,0,0,2.6084,1.3985,2.7,2.7,0,0,0,2.6807-1.3985q.6913-1.3974.6914-5.4316t-.6914-5.4326A2.7015,2.7015,0,0,0,250.6492,370.43Z"/>
    <path d="M268.8064,366.944q4.2642,0,5.9649,2.3047,1.7007,2.3072,1.7012,8.0127t-1.7012,8.0117q-1.7007,2.3057-5.9649,2.3057-4.2378,0-5.9375-2.3057t-1.7-8.0117q0-5.707,1.7-8.0127Q264.57,366.9446,268.8064,366.944Zm-.0293,3.4864a2.6178,2.6178,0,0,0-2.6084,1.3984q-.6766,1.3974-.6767,5.4326t.6767,5.4316a2.6163,2.6163,0,0,0,2.6084,1.3985,2.7,2.7,0,0,0,2.6807-1.3985q.6913-1.3974.6914-5.4316t-.6914-5.4326A2.7015,2.7015,0,0,0,268.7771,370.43Z"/>
    <path d="M287.5682,387.2038h-4.3809V373.197a11.58,11.58,0,0,1,.1728-2.1612l-4.64,1.211-.5186-2.94,4.9854-1.9883h4.3809Z"/>
    <path d="M299.2976,366.944q4.2642,0,5.9649,2.3047,1.7007,2.3072,1.7012,8.0127t-1.7012,8.0117q-1.7007,2.3057-5.9649,2.3057-4.2376,0-5.9375-2.3057t-1.7-8.0117q0-5.707,1.7-8.0127Q295.0608,366.9446,299.2976,366.944Zm-.0292,3.4864a2.6176,2.6176,0,0,0-2.6084,1.3984q-.6768,1.3974-.6768,5.4326t.6768,5.4316a2.6161,2.6161,0,0,0,2.6084,1.3985,2.7,2.7,0,0,0,2.6806-1.3985q.6915-1.3974.6914-5.4316t-.6914-5.4326A2.7014,2.7014,0,0,0,299.2684,370.43Z"/>
    <path d="M318.0594,387.2038h-4.3809V373.197a11.57,11.57,0,0,1,.1729-2.1612l-4.64,1.211-.5185-2.94,4.9853-1.9883h4.3809Z"/>
    <path d="M329.7889,366.944q4.264,0,5.9648,2.3047,1.7007,2.3072,1.7012,8.0127t-1.7012,8.0117q-1.7007,2.3057-5.9648,2.3057-4.2378,0-5.9375-2.3057t-1.7-8.0117q0-5.707,1.7-8.0127Q325.5519,366.9446,329.7889,366.944ZM329.76,370.43a2.6177,2.6177,0,0,0-2.6084,1.3984q-.6768,1.3974-.6768,5.4326t.6768,5.4316a2.6162,2.6162,0,0,0,2.6084,1.3985,2.7,2.7,0,0,0,2.6806-1.3985q.6915-1.3974.6914-5.4316t-.6914-5.4326A2.7014,2.7014,0,0,0,329.76,370.43Z"/>
    <path d="M348.5506,387.2038H344.17V373.197a11.57,11.57,0,0,1,.1729-2.1612l-4.64,1.211-.5185-2.94,4.9853-1.9883h4.3809Z"/>
    <path d="M110.5857,401.528q4.2642,0,5.9649,2.3047,1.7007,2.3071,1.7011,8.0127t-1.7011,8.0117q-1.7007,2.3057-5.9649,2.3057-4.2378,0-5.9375-2.3057t-1.7-8.0117q0-5.707,1.7-8.0127Q106.3489,401.5286,110.5857,401.528Zm-.0293,3.4863a2.6178,2.6178,0,0,0-2.6084,1.3985q-.6766,1.3974-.6767,5.4326t.6767,5.4316a2.6164,2.6164,0,0,0,2.6084,1.3985,2.7,2.7,0,0,0,2.6807-1.3985q.6913-1.3974.6914-5.4316t-.6914-5.4326A2.7015,2.7015,0,0,0,110.5564,405.0143Z"/>
    <path d="M129.3475,421.7878h-4.3809V407.7809a11.5791,11.5791,0,0,1,.1728-2.1611l-4.64,1.2109-.5186-2.94,4.9854-1.9883h4.3809Z"/>
    <path d="M141.0769,401.528q4.2642,0,5.9649,2.3047,1.7007,2.3071,1.7012,8.0127t-1.7012,8.0117q-1.7007,2.3057-5.9649,2.3057-4.2378,0-5.9375-2.3057t-1.7-8.0117q0-5.707,1.7-8.0127Q136.84,401.5286,141.0769,401.528Zm-.0293,3.4863a2.6178,2.6178,0,0,0-2.6084,1.3985q-.6766,1.3974-.6767,5.4326t.6767,5.4316a2.6164,2.6164,0,0,0,2.6084,1.3985,2.7,2.7,0,0,0,2.6807-1.3985q.6913-1.3974.6914-5.4316t-.6914-5.4326A2.7015,2.7015,0,0,0,141.0476,405.0143Z"/>
    <path d="M159.8387,421.7878h-4.3809V407.7809a11.57,11.57,0,0,1,.1729-2.1611l-4.64,1.2109-.5185-2.94,4.9853-1.9883h4.3809Z"/>
    <path d="M171.5682,401.528q4.264,0,5.9648,2.3047,1.7007,2.3071,1.7012,8.0127t-1.7012,8.0117q-1.7007,2.3057-5.9648,2.3057-4.2378,0-5.9375-2.3057t-1.7-8.0117q0-5.707,1.7-8.0127Q167.3313,401.5286,171.5682,401.528Zm-.0293,3.4863a2.6176,2.6176,0,0,0-2.6084,1.3985q-.6768,1.3974-.6768,5.4326t.6768,5.4316a2.6163,2.6163,0,0,0,2.6084,1.3985,2.7,2.7,0,0,0,2.6806-1.3985q.6915-1.3974.6914-5.4316t-.6914-5.4326A2.7015,2.7015,0,0,0,171.5389,405.0143Z"/>
    <path d="M190.33,421.7878H185.949V407.7809a11.57,11.57,0,0,1,.1729-2.1611l-4.64,1.2109-.5185-2.94,4.9853-1.9883H190.33Z"/>
    <path d="M202.0594,401.528q4.264,0,5.9648,2.3047,1.7007,2.3071,1.7012,8.0127t-1.7012,8.0117q-1.7007,2.3057-5.9648,2.3057-4.2378,0-5.9375-2.3057t-1.7-8.0117q0-5.707,1.7-8.0127Q197.8226,401.5286,202.0594,401.528Zm-.0293,3.4863a2.6177,2.6177,0,0,0-2.6084,1.3985q-.6768,1.3974-.6768,5.4326t.6768,5.4316a2.6164,2.6164,0,0,0,2.6084,1.3985,2.7,2.7,0,0,0,2.6806-1.3985q.6915-1.3974.6914-5.4316t-.6914-5.4326A2.7015,2.7015,0,0,0,202.03,405.0143Z"/>
    <path d="M220.8211,421.7878H216.44V407.7809a11.57,11.57,0,0,1,.1729-2.1611l-4.64,1.2109-.5185-2.94,4.9853-1.9883h4.3809Z"/>
    <path d="M232.5506,401.528q4.2642,0,5.9648,2.3047,1.7007,2.3071,1.7012,8.0127t-1.7012,8.0117q-1.7007,2.3057-5.9648,2.3057-4.2378,0-5.9375-2.3057t-1.7-8.0117q0-5.707,1.7-8.0127Q228.3138,401.5286,232.5506,401.528Zm-.0293,3.4863a2.6178,2.6178,0,0,0-2.6084,1.3985q-.6768,1.3974-.6768,5.4326t.6768,5.4316a2.6164,2.6164,0,0,0,2.6084,1.3985,2.7,2.7,0,0,0,2.6806-1.3985q.6915-1.3974.6915-5.4316t-.6915-5.4326A2.7014,2.7014,0,0,0,232.5213,405.0143Z"/>
    <path d="M250.6785,401.528q4.2642,0,5.9649,2.3047,1.7006,2.3071,1.7011,8.0127t-1.7011,8.0117q-1.7007,2.3057-5.9649,2.3057-4.2378,0-5.9375-2.3057t-1.7-8.0117q0-5.707,1.7-8.0127Q246.4417,401.5286,250.6785,401.528Zm-.0293,3.4863a2.6178,2.6178,0,0,0-2.6084,1.3985q-.6768,1.3974-.6767,5.4326t.6767,5.4316a2.6164,2.6164,0,0,0,2.6084,1.3985,2.7,2.7,0,0,0,2.6807-1.3985q.6913-1.3974.6914-5.4316t-.6914-5.4326A2.7015,2.7015,0,0,0,250.6492,405.0143Z"/>
    <path d="M269.44,421.7878h-4.3808V407.7809a11.5791,11.5791,0,0,1,.1728-2.1611l-4.64,1.2109-.5186-2.94,4.9854-1.9883H269.44Z"/>
    <path d="M281.8035,421.7878h-4.3809V407.7809a11.5782,11.5782,0,0,1,.1729-2.1611l-4.64,1.2109-.5186-2.94,4.9853-1.9883h4.3809Z"/>
    <path d="M293.533,401.528q4.2642,0,5.9648,2.3047,1.7007,2.3071,1.7012,8.0127t-1.7012,8.0117q-1.7005,2.3057-5.9648,2.3057-4.2378,0-5.9375-2.3057t-1.7-8.0117q0-5.707,1.7-8.0127Q289.2962,401.5286,293.533,401.528Zm-.0293,3.4863a2.6178,2.6178,0,0,0-2.6084,1.3985q-.6768,1.3974-.6768,5.4326t.6768,5.4316a2.6164,2.6164,0,0,0,2.6084,1.3985,2.7,2.7,0,0,0,2.6807-1.3985q.6914-1.3974.6914-5.4316t-.6914-5.4326A2.7015,2.7015,0,0,0,293.5037,405.0143Z"/>
    <path d="M312.2947,421.7878h-4.3808V407.7809a11.5791,11.5791,0,0,1,.1728-2.1611l-4.64,1.2109-.5186-2.94,4.9854-1.9883h4.3808Z"/>
    <path d="M324.658,421.7878h-4.3809V407.7809a11.5782,11.5782,0,0,1,.1729-2.1611l-4.64,1.2109-.5185-2.94,4.9853-1.9883h4.3809Z"/>
    <path d="M336.3875,401.528q4.2642,0,5.9648,2.3047,1.7007,2.3071,1.7012,8.0127t-1.7012,8.0117q-1.7007,2.3057-5.9648,2.3057-4.2378,0-5.9375-2.3057t-1.7-8.0117q0-5.707,1.7-8.0127Q332.1507,401.5286,336.3875,401.528Zm-.0293,3.4863a2.6178,2.6178,0,0,0-2.6084,1.3985q-.6768,1.3974-.6768,5.4326t.6768,5.4316a2.6164,2.6164,0,0,0,2.6084,1.3985,2.7,2.7,0,0,0,2.6807-1.3985q.6913-1.3974.6914-5.4316t-.6914-5.4326A2.7016,2.7016,0,0,0,336.3582,405.0143Z"/>
  </g>
  <rect class="e" x="821.9594" y="459.3269" width="293.082" height="64.5842"/>
  <g>
    <path d="M872.8006,497.5046l.374,3.2568a21.7119,21.7119,0,0,1-6.3691.8066q-4.6115,0-6.4844-2.3056T858.448,491.28q0-5.6778,1.8731-7.9834t6.4844-2.3057a24.3962,24.3962,0,0,1,5.9658.6631l-.374,3.2851q-2.3351-.1436-5.5918-.1435a3.1181,3.1181,0,0,0-2.9541,1.3682q-.7926,1.37-.792,5.1162t.792,5.1152a3.1168,3.1168,0,0,0,2.9541,1.3691A50.5939,50.5939,0,0,0,872.8006,497.5046Z"/>
    <path d="M882.4549,486.611q3.9769,0,5.6347,1.7149t1.6573,5.8066q0,4.0927-1.6573,5.7783t-5.6347,1.6865q-4.0063,0-5.6631-1.6865t-1.6572-5.7783q0-4.1207,1.6572-5.8213T882.4549,486.611Zm0,3.1992a2.5557,2.5557,0,0,0-2.2764.8643,6.9388,6.9388,0,0,0-.5762,3.458,6.7779,6.7779,0,0,0,.5762,3.4014,2.5559,2.5559,0,0,0,2.2764.8642,2.5243,2.5243,0,0,0,2.2334-.8642,6.6445,6.6445,0,0,0,.5908-3.4014,6.9454,6.9454,0,0,0-.5762-3.4434A2.5017,2.5017,0,0,0,882.4549,489.81Z"/>
    <path d="M896.0584,487.0143l.2881,2.0752a8.1,8.1,0,0,1,5.4179-2.4785q2.8813,0,3.66,2.3057a7.6392,7.6392,0,0,1,5.1875-2.3057,3.5372,3.5372,0,0,1,3.9482,3.9483v10.663H910.324v-9.3378a2.0367,2.0367,0,0,0-.3174-1.2969,1.5028,1.5028,0,0,0-1.1816-.374,3.4651,3.4651,0,0,0-1.3252.2587,14.0183,14.0183,0,0,0-1.8447,1.0088v9.7412h-4.0928v-9.3378a1.8533,1.8533,0,0,0-.36-1.2969,1.5647,1.5647,0,0,0-1.1669-.374,6.7723,6.7723,0,0,0-3.1416,1.2392v9.7695H892.657v-14.208Z"/>
    <path d="M921.42,487.0143l.3164,2.0752a6.6279,6.6279,0,0,1,2.4639-1.7578,7.821,7.821,0,0,1,3.1846-.6924q4.9,0,4.8994,7.6084,0,4.0929-1.3106,5.7207a4.9618,4.9618,0,0,1-4.1074,1.6289,7.7941,7.7941,0,0,1-4.7549-1.3837,22.7684,22.7684,0,0,1,.086,3.0546v3.43h-4.2364V487.0143Zm.7774,4.3233V497.85a14.9634,14.9634,0,0,0,3.2285.5761,2.161,2.161,0,0,0,1.9453-.8066,6.9663,6.9663,0,0,0,.5332-3.3721,7.8433,7.8433,0,0,0-.49-3.3857,1.81,1.81,0,0,0-1.73-.8789A6.8253,6.8253,0,0,0,922.1971,491.3376Z"/>
    <path d="M945.4549,486.611l-.4317,3.9483H943.87a15.5608,15.5608,0,0,0-4.3515.9795v9.6835h-4.2657v-14.208h3.3145l.375,2.0752a8.957,8.957,0,0,1,5.7637-2.4785Z"/>
    <path d="M956.3494,495.5446h-5.13a2.9408,2.9408,0,0,0,.9365,2.09,4.25,4.25,0,0,0,2.4356.5332,51.5484,51.5484,0,0,0,5.3027-.3174l.4033,2.6513a14.6,14.6,0,0,1-6.1962,1.0664q-4.0063,0-5.7061-1.7294t-1.7012-5.7061q0-4.1778,1.6573-5.8506,1.6568-1.67,5.5771-1.6709,3.5449,0,5.13,1.2246a4.4892,4.4892,0,0,1,1.6133,3.7324,3.9832,3.9832,0,0,1-1.0225,2.9825A4.6112,4.6112,0,0,1,956.3494,495.5446Zm-5.2168-2.5644h4.0352a1.2325,1.2325,0,0,0,1.0517-.375,1.8387,1.8387,0,0,0,.2735-1.0948,1.6474,1.6474,0,0,0-.5186-1.3984,3.3453,3.3453,0,0,0-1.9023-.3887,3.0351,3.0351,0,0,0-2.2481.6485A4.2709,4.2709,0,0,0,951.1326,492.98Z"/>
    <path d="M969.75,495.9479l-3.5449-.95a5.0989,5.0989,0,0,1-2.709-1.5713,4.479,4.479,0,0,1-.749-2.7519,3.5073,3.5073,0,0,1,1.3691-3.1416,8.7761,8.7761,0,0,1,4.6826-.9219,41.4839,41.4839,0,0,1,6.5713.5469l-.2881,2.7383q-3.6314-.0572-5.4756-.0576-1.0092,0-1.3984.0146a4.3272,4.3272,0,0,0-.7773.1006c-.26.0576-.418.1494-.4756.2734a1.4064,1.4064,0,0,0-.0869.5625,2.0427,2.0427,0,0,0,.0146.2588.5527.5527,0,0,0,.0723.2168,1.3941,1.3941,0,0,0,.1006.1582.5666.5666,0,0,0,.1582.13,1.2342,1.2342,0,0,0,.1875.1006c.0478.0195.1338.0537.26.1015.1241.0479.2207.0811.2881.1006s.1914.0528.374.1006.3223.0821.418.1006l3.6318.9805a5.6737,5.6737,0,0,1,2.709,1.4551,3.95,3.95,0,0,1,.8067,2.6943q0,2.5371-1.47,3.4443t-5.0429.9082a38.5016,38.5016,0,0,1-6.3692-.49l.2588-2.7666q1.0371.0587,4.9287.0576a13.7092,13.7092,0,0,0,2.8955-.1875.8355.8355,0,0,0,.6778-.8789,2.0807,2.0807,0,0,0-.0147-.26.5708.5708,0,0,0-.0722-.2158.705.705,0,0,0-.1153-.1582.8774.8774,0,0,0-.1865-.13c-.0869-.0478-.1543-.0869-.2021-.1152a1.7192,1.7192,0,0,0-.2735-.1152c-.1347-.0479-.2412-.0821-.3174-.1006s-.2119-.0528-.4033-.1016A3.4082,3.4082,0,0,1,969.75,495.9479Z"/>
    <path d="M984.9373,495.9479l-3.5449-.95a5.0989,5.0989,0,0,1-2.709-1.5713,4.479,4.479,0,0,1-.749-2.7519,3.5073,3.5073,0,0,1,1.3691-3.1416,8.7761,8.7761,0,0,1,4.6826-.9219,41.4839,41.4839,0,0,1,6.5713.5469l-.2881,2.7383q-3.6314-.0572-5.4756-.0576-1.0092,0-1.3984.0146a4.3272,4.3272,0,0,0-.7773.1006c-.26.0576-.418.1494-.4756.2734a1.4064,1.4064,0,0,0-.0869.5625,2.0427,2.0427,0,0,0,.0146.2588.5527.5527,0,0,0,.0723.2168,1.3941,1.3941,0,0,0,.1006.1582.5666.5666,0,0,0,.1582.13,1.2342,1.2342,0,0,0,.1875.1006c.0478.0195.1338.0537.26.1015.1241.0479.2207.0811.2881.1006s.1914.0528.374.1006.3223.0821.418.1006l3.6318.9805a5.6737,5.6737,0,0,1,2.709,1.4551,3.95,3.95,0,0,1,.8067,2.6943q0,2.5371-1.47,3.4443t-5.0429.9082a38.5016,38.5016,0,0,1-6.3692-.49l.2588-2.7666q1.0371.0587,4.9287.0576a13.7092,13.7092,0,0,0,2.8955-.1875.8355.8355,0,0,0,.6778-.8789,2.0807,2.0807,0,0,0-.0147-.26.5708.5708,0,0,0-.0722-.2158.705.705,0,0,0-.1153-.1582.8774.8774,0,0,0-.1865-.13c-.0869-.0478-.1543-.0869-.2021-.1152a1.7192,1.7192,0,0,0-.2735-.1152c-.1347-.0479-.2412-.0821-.3174-.1006s-.2119-.0528-.4033-.1016A3.4082,3.4082,0,0,1,984.9373,495.9479Z"/>
    <path d="M1002.8631,495.5446h-5.13a2.9408,2.9408,0,0,0,.9365,2.09,4.25,4.25,0,0,0,2.4356.5332,51.55,51.55,0,0,0,5.3027-.3174l.4033,2.6513a14.6008,14.6008,0,0,1-6.1963,1.0664q-4.0063,0-5.706-1.7294t-1.7012-5.7061q0-4.1778,1.6572-5.8506,1.6568-1.67,5.5772-1.6709,3.545,0,5.13,1.2246a4.4889,4.4889,0,0,1,1.6132,3.7324,3.9835,3.9835,0,0,1-1.0224,2.9825A4.6112,4.6112,0,0,1,1002.8631,495.5446Zm-5.2168-2.5644h4.0351a1.2326,1.2326,0,0,0,1.0518-.375,1.8387,1.8387,0,0,0,.2734-1.0948,1.6474,1.6474,0,0,0-.5185-1.3984,3.3455,3.3455,0,0,0-1.9024-.3887,3.035,3.035,0,0,0-2.248.6485A4.2709,4.2709,0,0,0,997.6463,492.98Z"/>
    <path d="M1023.5555,481.0485v20.1738h-3.3721l-.3457-2.0752a6.7442,6.7442,0,0,1-5.419,2.4209,4.1919,4.1919,0,0,1-3.8466-1.916,10.8237,10.8237,0,0,1-1.1963-5.6631q0-4.0927,1.3252-5.7353a4.9809,4.9809,0,0,1,4.122-1.6426,8.04,8.04,0,0,1,4.61,1.2676q-.1435-1.5849-.1436-2.9678v-3.8623Zm-4.2657,15.8506v-6.57a11.8984,11.8984,0,0,0-3.0263-.5479,2.1928,2.1928,0,0,0-1.9737.8067,6.9481,6.9481,0,0,0-.5332,3.372,6.8767,6.8767,0,0,0,.5186,3.2715,2.009,2.009,0,0,0,1.8447.8213,4.2521,4.2521,0,0,0,1.5274-.2451A9.3811,9.3811,0,0,0,1019.29,496.8991Z"/>
    <path d="M1043.0369,483.5846h-2.68a2.13,2.13,0,0,0-1.4844.4034,1.97,1.97,0,0,0-.4179,1.4414v1.5849h3.9189v2.8536h-3.9189v11.3544h-4.294V489.8679h-2.4785v-2.71l2.4785-.1436v-2.1611q0-4.3813,4.669-4.3809a27.7285,27.7285,0,0,1,4.61.2881Z"/>
    <path d="M1045.8035,480.7311h1.9014a1.0958,1.0958,0,0,1,1.2392,1.2393v1.5566a1.0954,1.0954,0,0,1-1.2392,1.2393h-1.9014a1.0954,1.0954,0,0,1-1.2393-1.2393V481.97A1.0958,1.0958,0,0,1,1045.8035,480.7311Zm3.083,20.4912H1044.65v-14.208h4.2363Z"/>
    <path d="M1056.7547,481.0485v15.5342q0,1.4414,1.6142,1.44h1.1524l.49,2.9688a7.6371,7.6371,0,0,1-3.4014.5761,4.2154,4.2154,0,0,1-2.997-1.0234,3.7648,3.7648,0,0,1-1.0947-2.8955V481.0485Z"/>
    <path d="M1070.9627,495.5446h-5.13a2.9408,2.9408,0,0,0,.9365,2.09,4.25,4.25,0,0,0,2.4356.5332,51.5484,51.5484,0,0,0,5.3027-.3174l.4033,2.6513a14.6008,14.6008,0,0,1-6.1963,1.0664q-4.0064,0-5.706-1.7294t-1.7012-5.7061q0-4.1778,1.6572-5.8506,1.6567-1.67,5.5772-1.6709,3.5449,0,5.13,1.2246a4.4892,4.4892,0,0,1,1.6133,3.7324,3.9836,3.9836,0,0,1-1.0225,2.9825A4.6112,4.6112,0,0,1,1070.9627,495.5446Zm-5.2168-2.5644h4.0351a1.2326,1.2326,0,0,0,1.0518-.375,1.8387,1.8387,0,0,0,.2734-1.0948,1.6474,1.6474,0,0,0-.5185-1.3984,3.3455,3.3455,0,0,0-1.9024-.3887,3.035,3.035,0,0,0-2.248.6485A4.2709,4.2709,0,0,0,1065.7459,492.98Z"/>
  </g>
  <rect class="f" x="867.7623" y="276.364" width="201.4762" height="125.7294"/>
  <g>
    <path d="M892.04,296.3005q4.2642,0,5.9649,2.3047,1.7007,2.307,1.7012,8.0127t-1.7012,8.0117q-1.7007,2.3057-5.9649,2.3056-4.2378,0-5.9375-2.3056t-1.7-8.0117q0-5.7071,1.7-8.0127T892.04,296.3005Zm-.0293,3.4863a2.6179,2.6179,0,0,0-2.6084,1.3984q-.6766,1.3975-.6767,5.4327t.6767,5.4316a2.6164,2.6164,0,0,0,2.6084,1.3984,2.7,2.7,0,0,0,2.6807-1.3984q.6914-1.3974.6914-5.4316,0-4.0358-.6914-5.4327A2.7016,2.7016,0,0,0,892.0105,299.7868Z"/>
    <path d="M910.8016,316.56h-4.3809V302.5534a11.5791,11.5791,0,0,1,.1728-2.1611l-4.64,1.2109-.5186-2.94,4.9854-1.9883h4.3809Z"/>
    <path d="M923.1648,316.56H918.784V302.5534a11.5791,11.5791,0,0,1,.1728-2.1611l-4.64,1.2109-.5186-2.94,4.9854-1.9883h4.3808Z"/>
    <path d="M934.8943,296.3005q4.2642,0,5.9649,2.3047,1.7007,2.307,1.7011,8.0127t-1.7011,8.0117q-1.7007,2.3057-5.9649,2.3056-4.2378,0-5.9375-2.3056t-1.7-8.0117q0-5.7071,1.7-8.0127T934.8943,296.3005Zm-.0293,3.4863a2.6179,2.6179,0,0,0-2.6084,1.3984q-.6766,1.3975-.6767,5.4327t.6767,5.4316a2.6164,2.6164,0,0,0,2.6084,1.3984,2.7,2.7,0,0,0,2.6807-1.3984q.6914-1.3974.6914-5.4316,0-4.0358-.6914-5.4327A2.7016,2.7016,0,0,0,934.865,299.7868Z"/>
    <path d="M953.656,316.56h-4.3808V302.5534a11.5791,11.5791,0,0,1,.1728-2.1611l-4.64,1.2109-.5186-2.94,4.9854-1.9883h4.3808Z"/>
    <path d="M965.3855,296.3005q4.2642,0,5.9649,2.3047,1.7007,2.307,1.7012,8.0127T971.35,314.63q-1.7007,2.3057-5.9649,2.3056-4.2378,0-5.9375-2.3056t-1.7-8.0117q0-5.7071,1.7-8.0127T965.3855,296.3005Zm-.0293,3.4863a2.6179,2.6179,0,0,0-2.6084,1.3984q-.6766,1.3975-.6767,5.4327t.6767,5.4316a2.6164,2.6164,0,0,0,2.6084,1.3984,2.7,2.7,0,0,0,2.6807-1.3984q.6914-1.3974.6914-5.4316,0-4.0358-.6914-5.4327A2.7016,2.7016,0,0,0,965.3562,299.7868Z"/>
    <path d="M983.5135,296.3005q4.264,0,5.9648,2.3047,1.7007,2.307,1.7012,8.0127t-1.7012,8.0117q-1.7007,2.3057-5.9648,2.3056-4.2378,0-5.9375-2.3056t-1.7-8.0117q0-5.7071,1.7-8.0127T983.5135,296.3005Zm-.0293,3.4863a2.6178,2.6178,0,0,0-2.6084,1.3984q-.6768,1.3975-.6768,5.4327t.6768,5.4316a2.6163,2.6163,0,0,0,2.6084,1.3984,2.7,2.7,0,0,0,2.6806-1.3984q.6915-1.3974.6914-5.4316,0-4.0358-.6914-5.4327A2.7016,2.7016,0,0,0,983.4842,299.7868Z"/>
    <path d="M1001.6414,296.3005q4.2642,0,5.9648,2.3047,1.7007,2.307,1.7012,8.0127t-1.7012,8.0117q-1.7006,2.3057-5.9648,2.3056-4.2378,0-5.9375-2.3056t-1.7-8.0117q0-5.7071,1.7-8.0127T1001.6414,296.3005Zm-.0293,3.4863a2.6179,2.6179,0,0,0-2.6084,1.3984q-.6768,1.3975-.6768,5.4327t.6768,5.4316a2.6164,2.6164,0,0,0,2.6084,1.3984,2.7,2.7,0,0,0,2.6807-1.3984q.6913-1.3974.6914-5.4316,0-4.0358-.6914-5.4327A2.7016,2.7016,0,0,0,1001.6121,299.7868Z"/>
    <path d="M1020.4031,316.56h-4.3808V302.5534a11.5791,11.5791,0,0,1,.1728-2.1611l-4.64,1.2109-.5186-2.94,4.9854-1.9883h4.3808Z"/>
    <path d="M1032.7664,316.56h-4.3809V302.5534a11.5782,11.5782,0,0,1,.1729-2.1611l-4.64,1.2109-.5185-2.94,4.9853-1.9883h4.3809Z"/>
    <path d="M1044.4959,296.3005q4.2642,0,5.9648,2.3047,1.7007,2.307,1.7012,8.0127t-1.7012,8.0117q-1.7007,2.3057-5.9648,2.3056-4.2378,0-5.9375-2.3056t-1.7-8.0117q0-5.7071,1.7-8.0127T1044.4959,296.3005Zm-.0293,3.4863a2.6179,2.6179,0,0,0-2.6084,1.3984q-.6768,1.3975-.6768,5.4327t.6768,5.4316a2.6164,2.6164,0,0,0,2.6084,1.3984,2.7,2.7,0,0,0,2.6807-1.3984q.6913-1.3974.6914-5.4316,0-4.0358-.6914-5.4327A2.7017,2.7017,0,0,0,1044.4666,299.7868Z"/>
    <path d="M892.6736,351.1442h-4.3808V337.1374a11.5791,11.5791,0,0,1,.1728-2.1611l-4.64,1.2109-.5186-2.94,4.9854-1.9883h4.3808Z"/>
    <path d="M905.0369,351.1442H900.656V337.1374a11.5782,11.5782,0,0,1,.1729-2.1611l-4.64,1.2109-.5185-2.94,4.9853-1.9883h4.3809Z"/>
    <path d="M917.4,351.1442h-4.3809V337.1374a11.57,11.57,0,0,1,.1729-2.1611l-4.64,1.2109-.5185-2.94,4.9853-1.9883H917.4Z"/>
    <path d="M929.13,330.8845q4.2642,0,5.9648,2.3046,1.7007,2.3071,1.7012,8.0127t-1.7012,8.0118q-1.7007,2.3057-5.9648,2.3056-4.2378,0-5.9375-2.3056t-1.7-8.0118q0-5.707,1.7-8.0127Q924.8929,330.885,929.13,330.8845Zm-.0293,3.4863a2.6179,2.6179,0,0,0-2.6084,1.3984q-.6768,1.3975-.6768,5.4326t.6768,5.4317a2.6164,2.6164,0,0,0,2.6084,1.3984,2.7,2.7,0,0,0,2.6806-1.3984q.6915-1.3976.6915-5.4317t-.6915-5.4326A2.7015,2.7015,0,0,0,929.1,334.3708Z"/>
    <path d="M947.8914,351.1442h-4.3809V337.1374a11.5782,11.5782,0,0,1,.1729-2.1611l-4.64,1.2109-.5185-2.94,4.9853-1.9883h4.3809Z"/>
    <path d="M959.6209,330.8845q4.2642,0,5.9648,2.3046,1.7007,2.3071,1.7012,8.0127t-1.7012,8.0118q-1.7007,2.3057-5.9648,2.3056-4.2378,0-5.9375-2.3056t-1.7-8.0118q0-5.707,1.7-8.0127Q955.3841,330.885,959.6209,330.8845Zm-.0293,3.4863a2.6179,2.6179,0,0,0-2.6084,1.3984q-.6768,1.3975-.6768,5.4326t.6768,5.4317a2.6164,2.6164,0,0,0,2.6084,1.3984,2.7,2.7,0,0,0,2.6807-1.3984q.6914-1.3976.6914-5.4317t-.6914-5.4326A2.7017,2.7017,0,0,0,959.5916,334.3708Z"/>
    <path d="M977.7488,330.8845q4.2642,0,5.9649,2.3046,1.7007,2.3071,1.7011,8.0127t-1.7011,8.0118q-1.7007,2.3057-5.9649,2.3056-4.2378,0-5.9375-2.3056t-1.7-8.0118q0-5.707,1.7-8.0127Q973.512,330.885,977.7488,330.8845Zm-.0293,3.4863a2.6179,2.6179,0,0,0-2.6084,1.3984q-.6766,1.3975-.6767,5.4326t.6767,5.4317a2.6164,2.6164,0,0,0,2.6084,1.3984,2.7,2.7,0,0,0,2.6807-1.3984q.6913-1.3976.6914-5.4317t-.6914-5.4326A2.7016,2.7016,0,0,0,977.72,334.3708Z"/>
    <path d="M995.8767,330.8845q4.2642,0,5.9649,2.3046,1.7007,2.3071,1.7012,8.0127t-1.7012,8.0118q-1.7007,2.3057-5.9649,2.3056-4.2377,0-5.9375-2.3056t-1.7-8.0118q0-5.707,1.7-8.0127Q991.64,330.885,995.8767,330.8845Zm-.0292,3.4863a2.6177,2.6177,0,0,0-2.6084,1.3984q-.6768,1.3975-.6768,5.4326t.6768,5.4317a2.6162,2.6162,0,0,0,2.6084,1.3984,2.7,2.7,0,0,0,2.6806-1.3984q.6915-1.3976.6914-5.4317t-.6914-5.4326A2.7016,2.7016,0,0,0,995.8475,334.3708Z"/>
    <path d="M1014.6385,351.1442h-4.3809V337.1374a11.57,11.57,0,0,1,.1729-2.1611l-4.64,1.2109-.5185-2.94,4.9853-1.9883h4.3809Z"/>
    <path d="M1027.0017,351.1442h-4.3808V337.1374a11.5791,11.5791,0,0,1,.1728-2.1611l-4.64,1.2109-.5186-2.94,4.9854-1.9883h4.3808Z"/>
    <path d="M1039.365,351.1442h-4.3808V337.1374a11.5791,11.5791,0,0,1,.1728-2.1611l-4.64,1.2109-.5186-2.94,4.9854-1.9883h4.3808Z"/>
    <path d="M892.6736,385.7272h-4.3808V371.72a11.5791,11.5791,0,0,1,.1728-2.1611l-4.64,1.2109-.5186-2.94,4.9854-1.9883h4.3808Z"/>
    <path d="M904.4031,365.4675q4.2642,0,5.9649,2.3046,1.7005,2.3071,1.7011,8.0127t-1.7011,8.0118q-1.7007,2.3057-5.9649,2.3056-4.2378,0-5.9375-2.3056t-1.7-8.0118q0-5.7069,1.7-8.0127Q900.1663,365.4679,904.4031,365.4675Zm-.0293,3.4863a2.6179,2.6179,0,0,0-2.6084,1.3984q-.6768,1.3976-.6767,5.4326t.6767,5.4317a2.6164,2.6164,0,0,0,2.6084,1.3984,2.7,2.7,0,0,0,2.6807-1.3984q.6914-1.3975.6914-5.4317t-.6914-5.4326A2.7016,2.7016,0,0,0,904.3738,368.9538Z"/>
    <path d="M923.1648,385.7272H918.784V371.72a11.5791,11.5791,0,0,1,.1728-2.1611l-4.64,1.2109-.5186-2.94,4.9854-1.9883h4.3808Z"/>
    <path d="M934.8943,365.4675q4.2642,0,5.9649,2.3046,1.7007,2.3071,1.7011,8.0127t-1.7011,8.0118q-1.7007,2.3057-5.9649,2.3056-4.2378,0-5.9375-2.3056t-1.7-8.0118q0-5.7069,1.7-8.0127Q930.6575,365.4679,934.8943,365.4675Zm-.0293,3.4863a2.6179,2.6179,0,0,0-2.6084,1.3984q-.6766,1.3976-.6767,5.4326t.6767,5.4317a2.6164,2.6164,0,0,0,2.6084,1.3984,2.7,2.7,0,0,0,2.6807-1.3984q.6914-1.3975.6914-5.4317t-.6914-5.4326A2.7016,2.7016,0,0,0,934.865,368.9538Z"/>
    <path d="M953.656,385.7272h-4.3808V371.72a11.5791,11.5791,0,0,1,.1728-2.1611l-4.64,1.2109-.5186-2.94,4.9854-1.9883h4.3808Z"/>
    <path d="M965.3855,365.4675q4.2642,0,5.9649,2.3046,1.7007,2.3071,1.7012,8.0127t-1.7012,8.0118q-1.7007,2.3057-5.9649,2.3056-4.2378,0-5.9375-2.3056t-1.7-8.0118q0-5.7069,1.7-8.0127Q961.1487,365.4679,965.3855,365.4675Zm-.0293,3.4863a2.6179,2.6179,0,0,0-2.6084,1.3984q-.6766,1.3976-.6767,5.4326t.6767,5.4317a2.6164,2.6164,0,0,0,2.6084,1.3984,2.7,2.7,0,0,0,2.6807-1.3984q.6914-1.3975.6914-5.4317t-.6914-5.4326A2.7016,2.7016,0,0,0,965.3562,368.9538Z"/>
    <path d="M983.5135,365.4675q4.264,0,5.9648,2.3046,1.7007,2.3071,1.7012,8.0127t-1.7012,8.0118q-1.7007,2.3057-5.9648,2.3056-4.2378,0-5.9375-2.3056t-1.7-8.0118q0-5.7069,1.7-8.0127Q979.2767,365.4679,983.5135,365.4675Zm-.0293,3.4863a2.6178,2.6178,0,0,0-2.6084,1.3984q-.6768,1.3976-.6768,5.4326t.6768,5.4317a2.6163,2.6163,0,0,0,2.6084,1.3984,2.7,2.7,0,0,0,2.6806-1.3984q.6915-1.3975.6914-5.4317t-.6914-5.4326A2.7016,2.7016,0,0,0,983.4842,368.9538Z"/>
    <path d="M1001.6414,365.4675q4.2642,0,5.9648,2.3046,1.7007,2.3071,1.7012,8.0127t-1.7012,8.0118q-1.7006,2.3057-5.9648,2.3056-4.2378,0-5.9375-2.3056t-1.7-8.0118q0-5.7069,1.7-8.0127Q997.4046,365.4679,1001.6414,365.4675Zm-.0293,3.4863a2.6179,2.6179,0,0,0-2.6084,1.3984q-.6768,1.3976-.6768,5.4326t.6768,5.4317a2.6164,2.6164,0,0,0,2.6084,1.3984,2.7,2.7,0,0,0,2.6807-1.3984q.6913-1.3975.6914-5.4317t-.6914-5.4326A2.7016,2.7016,0,0,0,1001.6121,368.9538Z"/>
    <path d="M1020.4031,385.7272h-4.3808V371.72a11.5791,11.5791,0,0,1,.1728-2.1611l-4.64,1.2109-.5186-2.94,4.9854-1.9883h4.3808Z"/>
    <path d="M1032.1326,365.4675q4.2642,0,5.9649,2.3046,1.7005,2.3071,1.7011,8.0127t-1.7011,8.0118q-1.7007,2.3057-5.9649,2.3056-4.2378,0-5.9375-2.3056t-1.7-8.0118q0-5.7069,1.7-8.0127Q1027.8958,365.4679,1032.1326,365.4675Zm-.0293,3.4863a2.6179,2.6179,0,0,0-2.6084,1.3984q-.6768,1.3976-.6767,5.4326t.6767,5.4317a2.6164,2.6164,0,0,0,2.6084,1.3984,2.7,2.7,0,0,0,2.6807-1.3984q.6913-1.3975.6914-5.4317t-.6914-5.4326A2.7016,2.7016,0,0,0,1032.1033,368.9538Z"/>
    <path d="M1050.8943,385.7272h-4.3808V371.72a11.5791,11.5791,0,0,1,.1728-2.1611l-4.64,1.2109-.5186-2.94,4.9854-1.9883h4.3808Z"/>
  </g>
</svg>
