<svg id="Layer_1" data-name="Layer 1" xmlns="http://www.w3.org/2000/svg" width="330.98" height="187.22" viewBox="0 0 330.98 187.22"><defs><style>.cls-1{fill:#c3eefe;}.cls-2{fill:#10a7e3;}.cls-3,.cls-4{fill:none;stroke:#10a7e3;stroke-linecap:round;stroke-miterlimit:10;}.cls-3{stroke-width:5.51px;}.cls-4{stroke-width:2.86px;}.cls-5{fill:#14bf96;}</style></defs><title>file compression</title><path class="cls-1" d="M122.42,148.86H12.75A13.44,13.44,0,0,1,0,134.83V14A13.45,13.45,0,0,1,12.75,0h92.49l29.9,30.13v104.7A13.41,13.41,0,0,1,122.42,148.86Z"/><path class="cls-2" d="M104.74,33.39l27.45-.18a3,3,0,0,0,2.09-5.06L107.08,1A3,3,0,0,0,102,3l-.18,27.47A3,3,0,0,0,104.74,33.39Z"/><line class="cls-3" x1="16.68" y1="41.82" x2="114.33" y2="41.82"/><line class="cls-3" x1="16.68" y1="56.42" x2="114.33" y2="56.42"/><line class="cls-3" x1="16.68" y1="71.04" x2="114.33" y2="71.04"/><line class="cls-3" x1="16.68" y1="85.64" x2="53.08" y2="85.64"/><line class="cls-3" x1="16.68" y1="100.26" x2="114.33" y2="100.26"/><line class="cls-3" x1="16.68" y1="114.86" x2="114.33" y2="114.86"/><line class="cls-3" x1="16.68" y1="129.48" x2="83.16" y2="129.48"/><path class="cls-1" d="M318.3,148.86h-57a7,7,0,0,1-6.62-7.29V78.82a7,7,0,0,1,6.62-7.29h48l15.54,15.65v54.39A7,7,0,0,1,318.3,148.86Z"/><path class="cls-2" d="M309.11,88.88l14.27-.1a1.53,1.53,0,0,0,1.52-1.56,1.5,1.5,0,0,0-.44-1.06L310.33,72a1.54,1.54,0,0,0-2.18,0,1.5,1.5,0,0,0-.45,1l-.09,14.27A1.55,1.55,0,0,0,309.11,88.88Z"/><line class="cls-4" x1="263.36" y1="93.26" x2="314.1" y2="93.26"/><line class="cls-4" x1="263.36" y1="100.84" x2="314.1" y2="100.84"/><line class="cls-4" x1="263.36" y1="108.44" x2="314.1" y2="108.44"/><line class="cls-4" x1="263.36" y1="116.02" x2="282.28" y2="116.02"/><line class="cls-4" x1="263.36" y1="123.62" x2="314.1" y2="123.62"/><line class="cls-4" x1="263.36" y1="131.2" x2="314.1" y2="131.2"/><line class="cls-4" x1="263.36" y1="138.8" x2="297.9" y2="138.8"/><path d="M39.8,167.78a14,14,0,0,1,2.8-.32,7.49,7.49,0,0,1,2.7.45,5.51,5.51,0,0,1,2,1.23A5.13,5.13,0,0,1,48.43,171a6.53,6.53,0,0,1,.4,2.34,7.2,7.2,0,0,1-.53,2.8,6.38,6.38,0,0,1-1.49,2.14,6.63,6.63,0,0,1-2.22,1.37,8,8,0,0,1-2.76.47,7.45,7.45,0,0,1-1.65-.17,8.39,8.39,0,0,1-1.47-.45,8.89,8.89,0,0,1-1.27-.65,8.05,8.05,0,0,1-1-.78l.75-1a.74.74,0,0,1,.64-.36,1.2,1.2,0,0,1,.61.21c.23.14.51.3.83.47a6.54,6.54,0,0,0,1.15.47,5.19,5.19,0,0,0,1.57.21,5.11,5.11,0,0,0,1.84-.32,4.09,4.09,0,0,0,1.4-.93,4.23,4.23,0,0,0,.9-1.45,5.67,5.67,0,0,0,.31-1.89,4.76,4.76,0,0,0-.27-1.65,3.09,3.09,0,0,0-.8-1.25,3.57,3.57,0,0,0-1.34-.8,5.58,5.58,0,0,0-1.88-.29,10.46,10.46,0,0,0-1.53.12A11.25,11.25,0,0,0,39,170l-1.52-.45L39,160.43h9.24v1.06a1.21,1.21,0,0,1-.32.85,1.51,1.51,0,0,1-1.1.33H40.7Z"/><path d="M65.62,170.18a16,16,0,0,1-.55,4.42,9.25,9.25,0,0,1-1.51,3.1,6,6,0,0,1-2.25,1.82,6.74,6.74,0,0,1-5.56,0,6.16,6.16,0,0,1-2.24-1.82A9.23,9.23,0,0,1,52,174.6a15.6,15.6,0,0,1-.55-4.42,15.8,15.8,0,0,1,.55-4.44,9.23,9.23,0,0,1,1.49-3.1,6.09,6.09,0,0,1,2.24-1.83,6.74,6.74,0,0,1,5.56,0,6,6,0,0,1,2.25,1.83,9.25,9.25,0,0,1,1.51,3.1A16.18,16.18,0,0,1,65.62,170.18Zm-2.52,0a15.92,15.92,0,0,0-.37-3.75,7.6,7.6,0,0,0-1-2.44,3.81,3.81,0,0,0-1.46-1.33,3.94,3.94,0,0,0-3.46,0A3.79,3.79,0,0,0,55.35,164a7.6,7.6,0,0,0-1,2.44,18.64,18.64,0,0,0,0,7.49,7.44,7.44,0,0,0,1,2.43,3.79,3.79,0,0,0,1.45,1.33,3.94,3.94,0,0,0,3.46,0,3.81,3.81,0,0,0,1.46-1.33,7.44,7.44,0,0,0,1-2.43A15.83,15.83,0,0,0,63.1,170.18Z"/><path d="M78.51,169h1a2.33,2.33,0,0,0,.83-.13,1.57,1.57,0,0,0,.57-.44l6.49-7.35a1.59,1.59,0,0,1,.57-.49,1.82,1.82,0,0,1,.74-.13h2.23l-7.43,8.39a3.75,3.75,0,0,1-.52.53,2.27,2.27,0,0,1-.54.35,2.07,2.07,0,0,1,.67.36,3.5,3.5,0,0,1,.58.62l7.76,9.24H89.16a2.65,2.65,0,0,1-.44,0,1,1,0,0,1-.32-.11,1.46,1.46,0,0,1-.24-.17,2.54,2.54,0,0,1-.2-.24l-6.72-7.74a1.51,1.51,0,0,0-.58-.48,2.32,2.32,0,0,0-1-.15h-1.2v8.93H75.89V160.43h2.62Z"/><path d="M100.12,160.43a11.77,11.77,0,0,1,3.1.35,5.86,5.86,0,0,1,2.13,1,3.81,3.81,0,0,1,1.23,1.59,5.36,5.36,0,0,1,.4,2.13,4.25,4.25,0,0,1-.23,1.38,4.11,4.11,0,0,1-.67,1.23,4.55,4.55,0,0,1-1.14,1,5.84,5.84,0,0,1-1.61.74,5.83,5.83,0,0,1,3.23,1.53,4.08,4.08,0,0,1,1.08,3,5.6,5.6,0,0,1-.45,2.26,5,5,0,0,1-1.33,1.75,6.16,6.16,0,0,1-2.16,1.13,9.6,9.6,0,0,1-2.91.41H93.91V160.43Zm-3.59,2.08v6.65H100a6.57,6.57,0,0,0,1.94-.25,3.86,3.86,0,0,0,1.36-.68,2.64,2.64,0,0,0,.8-1,3.53,3.53,0,0,0,.26-1.35,3,3,0,0,0-1-2.53,5.27,5.27,0,0,0-3.21-.79Zm4.22,15.31a6.2,6.2,0,0,0,1.94-.26,3.57,3.57,0,0,0,1.34-.72,2.85,2.85,0,0,0,.77-1.12,4,4,0,0,0,.25-1.42,2.92,2.92,0,0,0-1.08-2.39,5,5,0,0,0-3.22-.88H96.53v6.79Z"/><path d="M270.28,177.62a.85.85,0,0,1,.62.23.8.8,0,0,1,.24.6v1.47h-13v-.83a1.48,1.48,0,0,1,.11-.53,1.63,1.63,0,0,1,.34-.51l6.25-6.27c.51-.52,1-1,1.41-1.51a10.63,10.63,0,0,0,1.09-1.46,6.87,6.87,0,0,0,.69-1.49,5.32,5.32,0,0,0,.25-1.61,3.87,3.87,0,0,0-.28-1.51,2.93,2.93,0,0,0-.74-1.07,3,3,0,0,0-1.11-.63,4.32,4.32,0,0,0-1.37-.21,4,4,0,0,0-1.37.22,3.7,3.7,0,0,0-1.11.6A3.59,3.59,0,0,0,261,165.2a1.06,1.06,0,0,1-.45.63,1.17,1.17,0,0,1-.78.09l-1.26-.21a6.94,6.94,0,0,1,.74-2.37,5.88,5.88,0,0,1,1.39-1.72,5.82,5.82,0,0,1,1.91-1.05,7.23,7.23,0,0,1,2.32-.36,7,7,0,0,1,2.32.37,5.5,5.5,0,0,1,1.86,1.06,5.09,5.09,0,0,1,1.24,1.71,5.54,5.54,0,0,1,.44,2.29,6,6,0,0,1-.32,2,7.73,7.73,0,0,1-.89,1.77,14.67,14.67,0,0,1-1.28,1.65c-.49.53-1,1.07-1.55,1.62L261.57,178a10.44,10.44,0,0,1,1.11-.24,6.72,6.72,0,0,1,1.07-.09Z"/><path d="M287.59,170.18a15.73,15.73,0,0,1-.55,4.43,9.47,9.47,0,0,1-1.5,3.09,6,6,0,0,1-2.25,1.82,6.55,6.55,0,0,1-2.78.6,6.46,6.46,0,0,1-2.78-.6,5.89,5.89,0,0,1-2.24-1.82,9.09,9.09,0,0,1-1.5-3.09,18.44,18.44,0,0,1,0-8.86,9,9,0,0,1,1.5-3.11,6,6,0,0,1,2.24-1.83,6.46,6.46,0,0,1,2.78-.6,6.55,6.55,0,0,1,2.78.6,6.12,6.12,0,0,1,2.25,1.83,9.39,9.39,0,0,1,1.5,3.11A15.68,15.68,0,0,1,287.59,170.18Zm-2.51,0a15.87,15.87,0,0,0-.38-3.75,7.6,7.6,0,0,0-1-2.44,3.8,3.8,0,0,0-1.47-1.32,3.85,3.85,0,0,0-1.72-.41,3.89,3.89,0,0,0-1.73.41,3.78,3.78,0,0,0-1.46,1.32,7.83,7.83,0,0,0-1,2.44,19.14,19.14,0,0,0,0,7.49,7.66,7.66,0,0,0,1,2.43,3.81,3.81,0,0,0,1.46,1.33,3.88,3.88,0,0,0,1.73.4,3.74,3.74,0,0,0,3.19-1.73,7.44,7.44,0,0,0,1-2.43A15.78,15.78,0,0,0,285.08,170.18Z"/><path d="M300.49,169h1a2.16,2.16,0,0,0,.83-.13,1.47,1.47,0,0,0,.57-.44l6.49-7.35a1.59,1.59,0,0,1,.57-.49,1.77,1.77,0,0,1,.73-.13h2.23l-7.42,8.39a3.9,3.9,0,0,1-.53.54,2.28,2.28,0,0,1-.53.34,2.64,2.64,0,0,1,.66.36,3.53,3.53,0,0,1,.59.62l7.75,9.24h-2.28a2,2,0,0,1-.45,0,1,1,0,0,1-.32-.1.84.84,0,0,1-.23-.18,1.59,1.59,0,0,1-.2-.24l-6.72-7.74a1.53,1.53,0,0,0-.59-.48,2.28,2.28,0,0,0-.95-.14h-1.19v8.92h-2.63V160.43h2.63Z"/><path d="M322.1,160.43a12.12,12.12,0,0,1,3.09.35,6,6,0,0,1,2.14,1,3.84,3.84,0,0,1,1.23,1.6,5.52,5.52,0,0,1,.39,2.12,4.16,4.16,0,0,1-.22,1.38,4.26,4.26,0,0,1-.67,1.24,4.72,4.72,0,0,1-1.14,1,6.12,6.12,0,0,1-1.61.74,6,6,0,0,1,3.23,1.53,4.08,4.08,0,0,1,1.08,3,5.4,5.4,0,0,1-.46,2.26,4.72,4.72,0,0,1-1.33,1.75,6.2,6.2,0,0,1-2.15,1.14,10.06,10.06,0,0,1-2.92.4h-6.88V160.43Zm-3.59,2.08v6.65H322a7,7,0,0,0,1.94-.24,4,4,0,0,0,1.36-.69,2.61,2.61,0,0,0,.79-1,3.32,3.32,0,0,0,.26-1.35,3,3,0,0,0-1-2.53,5.27,5.27,0,0,0-3.21-.79Zm4.21,15.31a6.55,6.55,0,0,0,1.95-.25,3.81,3.81,0,0,0,1.34-.73,3,3,0,0,0,.77-1.12,4,4,0,0,0,.24-1.42,2.94,2.94,0,0,0-1.07-2.39,5.06,5.06,0,0,0-3.23-.87h-4.21v6.78Z"/><rect class="cls-5" x="153.08" y="103.43" width="72.57" height="8.35"/><polygon class="cls-5" points="236.77 108.44 224.78 99.74 224.78 117.13 236.77 108.44"/></svg>